<svg width="23" height="23" viewBox="0 0 23 23" fill="none" xmlns="http://www.w3.org/2000/svg">
<path fill-rule="evenodd" clip-rule="evenodd" d="M10.5203 0.000302464C11.5499 -0.0148955 12.4355 0.544209 13.2172 1.32395L13.218 1.32484L14.5308 2.6376C14.6778 2.41822 14.8481 2.20997 15.0415 2.01645C16.6473 0.41073 19.2507 0.41073 20.8564 2.01646C22.4622 3.62218 22.4622 6.22556 20.8564 7.83129C20.6629 8.0248 20.4547 8.19508 20.2353 8.34207L21.548 9.65479L21.5488 9.65573C22.3285 10.4373 22.8876 11.3229 22.8725 12.3525C22.8574 13.3742 22.2801 14.2278 21.5465 14.9561C21.5461 14.9566 21.5456 14.9571 21.5452 14.9575L20.2162 16.2865C19.7196 16.783 19.0696 16.7306 18.6772 16.565C18.2887 16.4009 17.8741 16.0241 17.7798 15.4477C17.7136 15.0435 17.5255 14.6567 17.2126 14.3438C16.4204 13.5517 15.1361 13.5517 14.344 14.3438C13.5519 15.1359 13.5519 16.4202 14.344 17.2123C14.6569 17.5252 15.0437 17.7134 15.4479 17.7796C16.0243 17.874 16.4012 18.2884 16.5652 18.677C16.7308 19.0694 16.7833 19.7194 16.2868 20.2159L14.954 21.5486C14.9536 21.5491 14.9532 21.5495 14.9527 21.55C14.2256 22.2823 13.3729 22.8583 12.3524 22.8734C11.324 22.8885 10.4394 22.3307 9.65904 21.5523L9.6581 21.5514L8.34206 20.2353C8.19509 20.4547 8.02483 20.6628 7.83135 20.8564C6.22564 22.4621 3.62224 22.4621 2.01652 20.8564C0.410803 19.2506 0.410803 16.6472 2.01652 15.0415C2.21 14.848 2.41821 14.6777 2.63755 14.5308L1.32481 13.218L1.32392 13.2172C0.544178 12.4355 -0.0149054 11.5499 0.000302885 10.5203C0.0153862 9.49864 0.592678 8.64509 1.32617 7.91674C1.32664 7.91627 1.32712 7.9158 1.32758 7.91533L2.6568 6.5861C3.15342 6.08949 3.80351 6.14198 4.19588 6.30764C4.58435 6.47165 4.99887 6.84857 5.09323 7.42498C5.1594 7.82918 5.34757 8.21606 5.66049 8.52898C6.45262 9.3211 7.73692 9.3211 8.52904 8.52898C9.32118 7.73684 9.32118 6.45255 8.52905 5.66042C8.21614 5.3475 7.82924 5.15933 7.42505 5.09316C6.84864 4.99879 6.47172 4.58428 6.30771 4.1958C6.14205 3.80344 6.08955 3.15334 6.58617 2.65673L7.91527 1.32764C7.91576 1.32715 7.91624 1.32666 7.91673 1.32618C8.64507 0.592667 9.49863 0.0153754 10.5203 0.000302464ZM10.551 2.08341C10.338 2.08655 9.97831 2.20645 9.39394 2.79519L9.39123 2.79798L8.82523 3.36395C9.25174 3.56172 9.65123 3.83632 10.0022 4.18728C11.6079 5.793 11.6079 8.3964 10.0022 10.0021C8.39647 11.6078 5.79307 11.6078 4.18735 10.0021C3.8364 9.65115 3.56179 9.25167 3.36402 8.82516L2.79795 9.39125L2.79518 9.39396C2.20647 9.97833 2.08655 10.338 2.08341 10.5511C2.08037 10.7569 2.1827 11.128 2.79855 11.7455C2.79846 11.7454 2.79865 11.7456 2.79855 11.7455L5.22605 14.173C5.50514 14.4521 5.60252 14.8649 5.47758 15.2394C5.35265 15.6137 5.02685 15.8853 4.63609 15.9409C4.21648 16.0005 3.81338 16.1909 3.48966 16.5147C2.69753 17.3068 2.69753 18.591 3.48967 19.3832C4.28179 20.1753 5.56608 20.1753 6.35822 19.3832C6.68193 19.0595 6.87231 18.6564 6.93197 18.2368C6.98752 17.846 7.25915 17.5202 7.63353 17.3953C8.00792 17.2703 8.42076 17.3677 8.69983 17.6468L11.1304 20.0774C11.1307 20.0776 11.1309 20.0779 11.1312 20.0781C11.1311 20.0781 11.1312 20.0782 11.1312 20.0781C11.7461 20.6914 12.1164 20.7933 12.3216 20.7903C12.5341 20.7872 12.8932 20.6676 13.4754 20.081L13.4781 20.0782L14.0477 19.5087C13.6212 19.3109 13.2218 19.0364 12.8709 18.6855C11.2652 17.0798 11.2652 14.4764 12.8709 12.8706C14.4765 11.2649 17.08 11.2649 18.6857 12.8706C19.0366 13.2216 19.3112 13.621 19.5089 14.0474L20.0748 13.4816L20.0776 13.4789C20.6663 12.8946 20.7862 12.5348 20.7894 12.3218C20.7924 12.116 20.6901 11.7449 20.0747 11.1277C20.0744 11.1275 20.0749 11.1279 20.0747 11.1277L17.6466 8.69979C17.3676 8.4207 17.2702 8.00784 17.3952 7.63346C17.5201 7.25906 17.8459 6.98745 18.2367 6.93192C18.6563 6.87228 19.0596 6.68189 19.3833 6.35815C20.1754 5.56602 20.1754 4.28172 19.3833 3.48959C18.5911 2.69746 17.3069 2.69746 16.5147 3.48959C16.1909 3.81333 16.0006 4.21648 15.9409 4.63615C15.8854 5.02691 15.6138 5.35273 15.2394 5.47768C14.865 5.60264 14.4522 5.50525 14.1731 5.22617L11.7458 2.79888C11.7456 2.79874 11.7459 2.79901 11.7458 2.79888C11.1284 2.18308 10.7568 2.08036 10.551 2.08341Z" fill="white"/>
</svg>
