<svg width="21" height="21" viewBox="0 0 21 21" fill="none" xmlns="http://www.w3.org/2000/svg">
<path d="M0.743296 7.0158H19.3395C19.7745 7.0158 20.1008 6.64923 20.1008 6.16046C20.1008 5.79389 19.9195 5.50878 19.6295 5.38659L10.3858 0.0916432C10.1683 -0.0305478 9.91455 -0.0305478 9.69705 0.0916432L0.417046 5.38659C0.0907964 5.54951 -0.0542036 5.95681 0.0182964 6.36411C0.127046 6.73069 0.380796 7.0158 0.743296 7.0158ZM10.0595 1.84305L16.1495 5.30513H3.96955L10.0595 1.84305ZM19.3395 18.5018H17.8533V8.97086C17.8533 8.48209 17.527 8.11552 17.092 8.11552C16.657 8.11552 16.3308 8.48209 16.3308 8.97086V18.5018H13.1408V8.97086C13.1408 8.48209 12.8145 8.11552 12.3795 8.11552C11.9808 8.11552 11.6183 8.48209 11.6183 8.97086V18.5018H8.4283V8.97086C8.4283 8.48209 8.10205 8.11552 7.66705 8.11552C7.23205 8.11552 6.9058 8.48209 6.9058 8.97086V18.5018H3.75205V8.97086C3.75205 8.48209 3.4258 8.11552 2.9908 8.11552C2.5558 8.11552 2.2658 8.48209 2.2658 8.97086V18.5018H0.779546C0.344546 18.5018 0.0182964 18.8683 0.0182964 19.3571C0.0182964 19.8459 0.344546 20.2124 0.779546 20.2124H19.3758C19.8108 20.2124 20.137 19.8459 20.137 19.3571C20.137 18.8683 19.7745 18.5018 19.3395 18.5018Z" fill="white"/>
</svg>
