<svg width="109" height="106" viewBox="0 0 109 106" fill="none" xmlns="http://www.w3.org/2000/svg">
<g id="body" filter="url(#filter0_d_106_803)">
<path fill-rule="evenodd" clip-rule="evenodd" d="M54.1192 30C40.8003 30 30 40.4419 30 53.324C30 63.6296 36.9109 72.372 46.4941 75.4565C47.6991 75.6728 48.1417 74.9505 48.1417 74.3345C48.1417 73.7783 48.1193 71.941 48.1089 69.992C41.399 71.4029 39.9831 67.2401 39.9831 67.2401C38.8859 64.5442 37.3051 63.8273 37.3051 63.8273C35.1164 62.3797 37.47 62.4098 37.47 62.4098C39.8916 62.574 41.1673 64.8134 41.1673 64.8134C43.3185 68.3783 46.8097 67.3479 48.186 66.7523C48.4025 65.2448 49.0276 64.2155 49.7173 63.633C44.3601 63.044 38.7282 61.0437 38.7282 52.1066C38.7282 49.5601 39.6707 47.4795 41.2136 45.8457C40.9628 45.2586 40.1372 42.8864 41.4469 39.6737C41.4469 39.6737 43.4719 39.0468 48.081 42.0645C50.0053 41.5473 52.069 41.2874 54.1192 41.2785C56.1681 41.2874 58.233 41.5465 60.1609 42.0637C64.7644 39.046 66.787 39.6729 66.787 39.6729C68.0999 42.8852 67.2743 45.2579 67.0239 45.8449C68.5703 47.4787 69.5062 49.5594 69.5062 52.1058C69.5062 61.0642 63.8638 63.0363 58.493 63.6141C59.3585 64.3379 60.1294 65.7577 60.1294 67.9334C60.1294 71.0542 60.1014 73.5659 60.1014 74.3341C60.1014 74.9548 60.536 75.6821 61.7581 75.453C71.3358 72.3654 78.2387 63.6257 78.2387 53.324C78.2383 40.4427 67.4392 30 54.1192 30Z" fill="white"/>
</g>
<defs>
<filter id="filter0_d_106_803" x="0" y="0" width="108.238" height="105.496" filterUnits="userSpaceOnUse" color-interpolation-filters="sRGB">
<feFlood flood-opacity="0" result="BackgroundImageFix"/>
<feColorMatrix in="SourceAlpha" type="matrix" values="0 0 0 0 0 0 0 0 0 0 0 0 0 0 0 0 0 0 127 0" result="hardAlpha"/>
<feOffset/>
<feGaussianBlur stdDeviation="15"/>
<feComposite in2="hardAlpha" operator="out"/>
<feColorMatrix type="matrix" values="0 0 0 0 1 0 0 0 0 1 0 0 0 0 1 0 0 0 1 0"/>
<feBlend mode="normal" in2="BackgroundImageFix" result="effect1_dropShadow_106_803"/>
<feBlend mode="normal" in="SourceGraphic" in2="effect1_dropShadow_106_803" result="shape"/>
</filter>
</defs>
</svg>
