<svg width="35" height="40" viewBox="0 0 35 40" fill="none" xmlns="http://www.w3.org/2000/svg">
<path d="M34.4067 0L31.2722 35.1148L17.1823 39.021L3.13122 35.1203L0 0H34.4067Z" fill="#264DE4"/>
<path d="M28.5904 32.8788L31.2691 2.87158H17.2051V36.0352L28.5904 32.8788Z" fill="#2965F1"/>
<path d="M7.17969 15.8972L7.56574 20.2045H17.2048V15.8972H7.17969Z" fill="#EBEBEB"/>
<path d="M17.2051 7.17871H17.1902H6.4043L6.79585 11.4861H17.2051V7.17871Z" fill="#EBEBEB"/>
<path d="M17.2044 31.5652V27.0838L17.1855 27.0888L12.3884 25.7935L12.0817 22.3582H9.75069H7.75781L8.36127 29.1213L17.1846 31.5707L17.2044 31.5652Z" fill="#EBEBEB"/>
<path d="M22.4935 20.2042L21.9935 25.7906L17.1895 27.0872V31.5685L26.0198 29.1212L26.0846 28.3934L27.0967 17.0536L27.2018 15.8969L27.9795 7.17871H17.1895V11.4861H23.259L22.867 15.8969H17.1895V20.2042H22.4935Z" fill="white"/>
</svg>
