<svg width="40" height="29" viewBox="0 0 40 29" fill="none" xmlns="http://www.w3.org/2000/svg">
<path d="M39.5859 10.8299C39.4775 10.7438 38.4653 9.97951 36.3306 9.97951C35.7669 9.98197 35.2044 10.0303 34.6486 10.1241C34.2354 7.29223 31.8942 5.91155 31.7892 5.84961L31.216 5.51904L30.839 6.06307C30.3668 6.79386 30.0222 7.59946 29.8198 8.44563C29.4376 10.0621 29.6701 11.5805 30.4912 12.8785C29.4996 13.4311 27.909 13.5671 27.5871 13.5791H1.25149C0.563609 13.5801 0.00542831 14.136 0.00167951 14.8238C-0.0290383 17.1309 0.361845 19.4243 1.15508 21.591C2.06229 23.9702 3.41197 25.7226 5.16792 26.7951C7.1356 28.0002 10.3324 28.6888 13.9562 28.6888C15.5932 28.6939 17.2272 28.5458 18.8367 28.2464C21.074 27.8356 23.2269 27.0536 25.2062 25.9326C26.8372 24.9882 28.305 23.7866 29.5531 22.3743C31.6395 20.0124 32.8825 17.3819 33.8069 15.0441H34.1753C36.4597 15.0441 37.8645 14.13 38.6392 13.3639C39.154 12.8754 39.5559 12.2802 39.8167 11.6201L39.9802 11.1415L39.5859 10.8299Z" fill="#2496ED"/>
<path d="M3.6929 12.8079H7.22198C7.39218 12.8079 7.53011 12.6699 7.53011 12.4998V9.35625C7.53106 9.18604 7.39386 9.04734 7.22371 9.04639C7.22315 9.04639 7.22253 9.04639 7.22198 9.04639H3.6929C3.52269 9.04639 3.38477 9.18436 3.38477 9.35452V9.35625V12.4997C3.38477 12.6699 3.52269 12.8079 3.6929 12.8079Z" fill="#2496ED"/>
<path d="M8.55601 12.8079H12.0851C12.2553 12.8079 12.3932 12.6699 12.3932 12.4998V9.35625C12.3942 9.18604 12.257 9.04734 12.0868 9.04639C12.0862 9.04639 12.0856 9.04639 12.085 9.04639H8.55596C8.3848 9.04639 8.24609 9.18509 8.24609 9.35625V12.4997C8.2471 12.6702 8.38553 12.8079 8.55601 12.8079Z" fill="#2496ED"/>
<path d="M13.4957 12.8079H17.0248C17.195 12.8079 17.3329 12.6699 17.3329 12.4998V9.35625C17.3338 9.18604 17.1967 9.04734 17.0264 9.04639C17.0259 9.04639 17.0253 9.04639 17.0247 9.04639H13.4956C13.3254 9.04639 13.1875 9.18436 13.1875 9.35452V9.35625V12.4997C13.1876 12.6699 13.3255 12.8079 13.4957 12.8079Z" fill="#2496ED"/>
<path d="M18.3726 12.8079H21.9017C22.0721 12.8079 22.2106 12.6702 22.2115 12.4998V9.35625C22.2115 9.18509 22.0728 9.04639 21.9017 9.04639H18.3726C18.2024 9.04639 18.0645 9.18436 18.0645 9.35452V9.35625V12.4997C18.0645 12.6699 18.2024 12.8079 18.3726 12.8079Z" fill="#2496ED"/>
<path d="M8.55596 8.28562H12.085C12.2555 8.28467 12.3932 8.14619 12.3932 7.97576V4.8323C12.3932 4.66209 12.2552 4.52417 12.085 4.52417H8.55596C8.38553 4.52417 8.24704 4.66181 8.24609 4.8323V7.97576C8.24704 8.14652 8.38519 8.28467 8.55596 8.28562Z" fill="#2496ED"/>
<path d="M13.4956 8.28562H17.0247C17.1951 8.28467 17.3328 8.14619 17.3328 7.97576V4.8323C17.3328 4.66209 17.1949 4.52417 17.0247 4.52417H13.4956C13.3254 4.52417 13.1875 4.66215 13.1875 4.8323V7.97576C13.1875 8.14619 13.3252 8.28467 13.4956 8.28562Z" fill="#2496ED"/>
<path d="M18.3726 8.28562H21.9017C22.0724 8.28467 22.2106 8.14652 22.2115 7.97576V4.8323C22.2106 4.66181 22.0721 4.52417 21.9017 4.52417H18.3726C18.2024 4.52417 18.0645 4.66215 18.0645 4.8323V7.97576C18.0645 8.14619 18.2022 8.28467 18.3726 8.28562Z" fill="#2496ED"/>
<path d="M18.3726 3.76151H21.9017C22.0721 3.76151 22.2106 3.62381 22.2115 3.45338V0.308129C22.2106 0.137643 22.0721 0 21.9017 0H18.3726C18.2024 0 18.0645 0.137922 18.0645 0.308129V3.45332C18.0645 3.62353 18.2024 3.76151 18.3726 3.76151Z" fill="#2496ED"/>
<path d="M23.2945 12.8079H26.8235C26.994 12.8079 27.1325 12.6702 27.1334 12.4998V9.35625C27.1334 9.18509 26.9947 9.04639 26.8235 9.04639H23.2945C23.1243 9.04639 22.9863 9.18436 22.9863 9.35452V9.35625V12.4997C22.9863 12.6699 23.1243 12.8079 23.2945 12.8079Z" fill="#2496ED"/>
</svg>
