<svg width="41" height="41" viewBox="0 0 41 41" fill="none" xmlns="http://www.w3.org/2000/svg">
<g clip-path="url(#clip0_82_865)">
<path d="M1.25781 20.1403C1.25781 21.8822 1.50233 23.5639 1.91804 25.1755H26.4334C29.2141 25.1755 31.4685 22.921 31.4685 20.1403C31.4685 17.3597 29.2141 15.1052 26.4334 15.1052H1.91804C1.48553 16.7488 1.26368 18.4408 1.25781 20.1403Z" fill="#343741"/>
<path d="M35.1484 9.64477C35.8525 8.99682 36.5075 8.29753 37.108 7.55268C33.4154 2.95152 27.7544 0 21.3978 0C13.4408 0 6.59365 4.62916 3.32617 11.329H30.8513C32.4442 11.3279 33.9782 10.7265 35.1475 9.64477" fill="#FEC514"/>
<path d="M30.8523 28.9519H3.32812C6.59592 35.6518 13.4418 40.2809 21.3989 40.2809C27.7557 40.2809 33.4164 37.3281 37.1091 32.7282C36.5088 31.9831 35.8538 31.2838 35.1494 30.6362C33.9798 29.5544 32.4455 28.9531 30.8523 28.9519Z" fill="#00BFB3"/>
</g>
<defs>
<clipPath id="clip0_82_865">
<rect width="40.2809" height="40.2809" fill="white"/>
</clipPath>
</defs>
</svg>
