<svg width="41" height="24" viewBox="0 0 41 24" fill="none" xmlns="http://www.w3.org/2000/svg">
<path d="M40.7254 23.0115C39.2442 23.3883 38.3281 23.0277 37.5062 21.7933C35.6611 19.0289 33.6244 16.3912 31.6591 13.7048C31.4057 13.3572 31.1426 13.0161 30.8145 12.5841C28.4886 15.722 26.166 18.7106 23.9863 21.8193C23.2067 22.9303 22.3881 23.4143 20.9328 23.0212L29.6776 11.2847L21.537 0.685119C22.9371 0.412252 23.9051 0.551934 24.7627 1.80582C26.6565 4.57348 28.7453 7.20794 30.8275 9.99509C32.9227 7.21769 34.9855 4.57997 36.9345 1.83831C37.7174 0.727348 38.5587 0.305054 39.9653 0.714355C38.8998 2.12742 37.8571 3.51774 36.8078 4.89832C35.3915 6.75966 34.0012 8.64375 32.5329 10.4661C32.0099 11.1158 32.0944 11.5381 32.5622 12.152C35.2778 15.7221 37.961 19.3278 40.7254 23.0115ZM0.00974529 11.0898C0.243631 9.91713 0.399556 8.72171 0.724398 7.57177C2.67345 0.610405 10.6646 -2.28394 16.1544 2.02996C19.3703 4.56048 20.1694 8.12725 20.0103 12.1488H1.88408C1.61122 19.3635 6.80544 23.7197 13.4257 21.4977C15.7483 20.7181 17.1159 18.899 17.8013 16.6251C18.1489 15.4849 18.7239 15.3063 19.7959 15.6311C19.2469 18.4767 18.0027 20.8546 15.404 22.3423C11.5059 24.5707 5.94136 23.8496 3.01453 20.7539C1.28637 18.9347 0.552231 16.6706 0.227389 14.2245C0.178663 13.8347 0.0779621 13.4514 0 13.0648C0.00649684 12.4065 0.00974529 11.7482 0.00974529 11.0898ZM1.91657 10.6058H18.2983C18.1911 5.38883 14.9427 1.68238 10.5021 1.6499C5.62951 1.61092 2.12771 5.22966 1.91657 10.6058Z" fill="white"/>
</svg>
