<svg width="40" height="40" viewBox="0 0 40 40" fill="none" xmlns="http://www.w3.org/2000/svg">
<path d="M13.3274 39.9803C17.0056 39.9803 19.9908 36.9951 19.9908 33.3169V26.6536H13.3274C9.64925 26.6536 6.66406 29.6387 6.66406 33.3169C6.66406 36.9951 9.64925 39.9803 13.3274 39.9803Z" fill="#0ACF83"/>
<path d="M6.66406 19.99C6.66406 16.3118 9.64925 13.3267 13.3274 13.3267H19.9908V26.6534H13.3274C9.64925 26.6534 6.66406 23.6682 6.66406 19.99Z" fill="#A259FF"/>
<path d="M6.66406 6.66337C6.66406 2.98519 9.64925 0 13.3274 0H19.9908V13.3267H13.3274C9.64925 13.3267 6.66406 10.3415 6.66406 6.66337Z" fill="#F24E1E"/>
<path d="M19.9902 0H26.6536C30.3318 0 33.317 2.98519 33.317 6.66337C33.317 10.3415 30.3318 13.3267 26.6536 13.3267H19.9902V0Z" fill="#FF7262"/>
<path d="M33.317 19.99C33.317 23.6682 30.3318 26.6534 26.6536 26.6534C22.9754 26.6534 19.9902 23.6682 19.9902 19.99C19.9902 16.3118 22.9754 13.3267 26.6536 13.3267C30.3318 13.3267 33.317 16.3118 33.317 19.99Z" fill="#1ABCFE"/>
</svg>
