<svg width="40" height="40" viewBox="0 0 40 40" fill="none" xmlns="http://www.w3.org/2000/svg">
<path d="M39.2262 18.2088L21.7705 0.753963C20.7658 -0.251321 19.1354 -0.251321 18.1295 0.753963L14.5047 4.37873L19.1029 8.97693C20.1714 8.61586 21.3968 8.85808 22.2485 9.70985C23.1044 10.5671 23.3449 11.8029 22.975 12.8748L27.4064 17.3064C28.4786 16.9371 29.7156 17.176 30.5719 18.0337C31.7687 19.23 31.7687 21.1689 30.5719 22.3659C29.3748 23.5632 27.436 23.5632 26.2383 22.3659C25.3381 21.4648 25.1157 20.1428 25.5714 19.0338L21.4388 14.9012L21.4383 25.7766C21.7379 25.9247 22.0115 26.1204 22.2485 26.356C23.4453 27.5523 23.4453 29.4913 22.2485 30.6893C21.0515 31.8859 19.1116 31.8859 17.9163 30.6893C16.7195 29.4913 16.7195 27.5524 17.9163 26.3561C18.2031 26.0692 18.5439 25.842 18.9191 25.6876V14.7108C18.5434 14.5574 18.2023 14.3301 17.9163 14.0422C17.0096 13.1367 16.7915 11.8063 17.2562 10.693L12.7234 6.15973L0.754314 18.128C-0.251438 19.1342 -0.251438 20.7648 0.754314 21.7703L18.2104 39.2254C19.2153 40.2308 20.8455 40.2308 21.8517 39.2254L39.2261 21.8513C40.2315 20.8456 40.2317 19.2141 39.2262 18.2088Z" fill="#DE4C36"/>
</svg>
