<svg width="41" height="41" viewBox="0 0 41 41" fill="none" xmlns="http://www.w3.org/2000/svg">
<g clip-path="url(#clip0_82_815)">
<path d="M34.3517 19.4583C34.3517 27.4586 28.0111 33.944 20.1897 33.944C12.368 33.944 6.02734 27.4586 6.02734 19.4583C6.02734 11.458 12.3683 4.97192 20.1897 4.97192C28.0111 4.97192 34.3517 11.458 34.3517 19.4583Z" fill="#D33833"/>
<path d="M6.60516 23.0457C6.60516 23.0457 5.57988 7.93949 19.499 7.50825L18.528 5.88989L10.9747 8.42532L8.81691 10.9071L6.92851 14.5221L5.84961 18.7301L6.17297 21.5356" fill="#EF3D3A"/>
<path d="M10.49 9.5762C8.00533 12.1189 6.46773 15.6288 6.46773 19.5122C6.46773 23.3947 8.00533 26.9055 10.49 29.4476C12.9759 31.9893 16.4019 33.5581 20.1897 33.5581C23.9775 33.5581 27.4035 31.9893 29.8894 29.4476C32.374 26.9055 33.912 23.3947 33.912 19.5122C33.912 15.6288 32.374 12.1186 29.8894 9.5762C27.4035 7.0351 23.9775 5.46627 20.1897 5.46595C16.4022 5.46627 12.9759 7.03478 10.49 9.57651V9.5762ZM9.86123 30.0624C7.22076 27.3617 5.58789 23.6294 5.58789 19.5122C5.58789 15.3944 7.22076 11.6624 9.86123 8.96166C12.5017 6.2603 16.1561 4.58611 20.1897 4.58643C24.2239 4.5858 27.8789 6.2603 30.5185 8.96166C33.1596 11.6624 34.7924 15.3947 34.7921 19.5122C34.7921 23.6291 33.1596 27.3617 30.5185 30.0624C27.8789 32.7635 24.2239 34.438 20.19 34.438C16.1561 34.438 12.5011 32.7635 9.86123 30.0624Z" fill="#231F20"/>
<path d="M26.1519 19.5382L23.9938 19.8619L21.0805 20.1856L19.1921 20.2395L17.3576 20.1859L15.955 19.754L14.714 18.4054L13.743 15.6538L13.5272 15.0605L12.2322 14.6289L11.477 13.3878L10.9375 11.6073L11.5309 10.0426L12.9335 9.55741L14.0666 10.0969L14.6061 11.2837L15.2537 11.1758L15.4692 10.906L15.2537 9.6653L15.1995 8.10058L15.5232 5.94277L15.5105 4.70992L16.4945 3.1373L18.2207 1.89625L21.2423 0.601562L24.5872 1.08707L27.5006 3.19125L28.8495 5.34905L29.7126 6.91378L29.9284 10.7982L29.2808 14.1434L28.094 17.1104L26.9611 18.6751" fill="#F0D6B7"/>
<path d="M27.7704 17.974L26.4761 19.269V24.2862L25.3467 28.911L24.8038 28.9258L25.235 34.1052L27.2849 33.8355L26.7997 28.8719L25.8843 28.8968L28.3648 28.7637C28.3648 28.7637 29.6052 25.6346 29.6052 25.4727C29.6052 25.3109 30.6847 20.941 30.6847 20.941L28.2563 18.4056L27.7708 17.9734L27.7704 17.974ZM14.7684 18.7829L13.4198 19.3226L9.10352 22.2899L9.37356 23.1534L10.6146 26.8217L11.1537 32.9187L11.5314 33.5654L16.9262 35.4005L17.2505 35.022L16.6028 30.4903V29.1959L24.3176 28.8719L24.9107 28.5482L20.2178 26.3362L21.0809 24.6642L19.8402 25.0954L19.3544 24.502L18.707 21.6966L18.1673 21.5347L16.9805 21.1568L15.9552 20.24L14.7684 18.7829Z" fill="#335061"/>
<path d="M11.5302 10.0428L12.9328 9.55694L14.066 10.0967L14.6054 11.2835L15.2531 11.1756L15.4149 10.5283L15.0912 9.28753L15.4149 6.31991L15.1449 4.70156L16.1162 3.56839L18.2204 1.89609L17.6267 1.08691L14.6594 2.54343L13.4186 3.51476L12.717 5.02523L11.6381 6.48175L11.3145 8.20831L11.5302 10.0428Z" fill="#6D6B6D"/>
<path d="M18.7526 1.26858C18.3829 1.26479 17.9503 1.30265 17.9503 1.30265L14.4439 2.65191L13.0946 4.00085L12.5012 5.07976L13.7423 4.97187C13.7423 4.97187 14.5515 2.97558 17.7885 2.00457C19.8116 1.3976 19.369 1.2752 18.7526 1.26858ZM15.1452 4.70183L12.1779 5.40311L11.3145 8.20858L11.5302 10.0427L12.1233 9.66573C12.1233 9.66573 10.9905 5.8883 15.3064 5.34885L15.1452 4.70183Z" fill="#DCD9D8"/>
<path d="M22.0775 0.150012C21.662 0.15739 21.251 0.237245 20.863 0.385983C17.6263 1.62672 15.2524 3.89242 15.306 5.34894C15.3981 7.82979 15.3603 7.83168 15.3603 7.83168C15.3603 7.83168 16.2776 3.08356 20.9179 2.16617C24.7376 1.41126 26.744 2.32769 27.4995 3.19082C27.4995 3.19082 24.8969 0.0929126 22.0779 0.149697L22.0775 0.150012ZM27.8595 3.73059C27.6875 3.72964 26.3096 3.76466 26.2588 5.07985C26.2588 5.07985 26.2588 5.29531 26.3667 5.51109C26.3667 5.51109 27.6077 4.1082 28.3629 4.86343L27.8774 3.7309C27.8774 3.7309 27.8711 3.73059 27.8595 3.73059ZM19.9144 4.36468C19.6494 4.37099 19.3226 4.48172 18.921 4.75586C17.7342 5.56504 17.8421 6.6982 18.0578 6.91398C18.2736 7.12976 18.2153 7.56385 18.3796 7.26573C18.5437 6.96761 18.4897 5.99691 19.0831 5.72719C19.6765 5.45746 20.6497 5.15556 21.0264 5.65715C21.0264 5.65715 20.8617 4.34291 19.9144 4.36499V4.36468ZM28.2544 7.66953C28.2544 7.66953 27.3654 7.85692 27.2834 8.64054C27.2014 9.42385 28.2547 8.80206 28.4166 8.74812L28.2544 7.66922V7.66953ZM21.7264 7.72348C21.7264 7.72348 20.5396 7.88531 20.5396 8.64054C20.5396 9.39578 21.8886 9.34183 22.2662 9.01816L21.7264 7.72348ZM12.1232 9.66613L10.8828 10.9602L11.0986 12.5789L11.7453 14.2508L12.4472 14.4673C11.4219 13.2265 11.9075 12.3628 12.1232 11.176C12.3387 9.98886 14.3893 11.2302 14.3893 11.2302L14.335 10.4204L13.5261 9.77371L12.1232 9.66613ZM24.3032 12.1416C23.948 12.1258 23.8123 13.2883 23.7833 13.5884C23.8811 13.2981 24.7836 12.7145 24.7836 12.7145C24.7836 12.7145 24.7836 12.2741 24.3432 12.1486C24.3302 12.1447 24.3168 12.1424 24.3032 12.1416ZM23.7833 13.5884C23.7745 13.6105 23.7724 13.6347 23.777 13.6581C23.777 13.6581 23.7789 13.6325 23.7833 13.5884ZM14.5564 13.9988L13.8498 14.6834L14.0116 17.0573L15.7382 19.7548C15.7382 19.7548 17.6761 20.1921 17.4644 20.0249C15.1448 18.1904 14.983 14.7912 14.929 14.4133C14.8754 14.036 14.5564 13.9988 14.5564 13.9988ZM20.6273 14.8029C20.4144 14.8061 20.2734 14.8748 20.2336 14.9278C20.0989 15.1077 20.3778 16.0862 20.3778 16.0862L20.6475 16.1405C20.5939 15.0613 21.2409 14.9531 21.2409 14.9531C21.0018 14.8382 20.793 14.8004 20.6273 14.8029Z" fill="#F7E4CD"/>
<path d="M14.3908 18.7294L9.10352 22.2898L9.69691 23.9627L11.1001 30.0046L11.1537 33.1883L11.909 33.4577C12.9879 30.8677 10.8843 22.5056 10.8843 22.5056L15.9552 20.2399L14.3908 18.7294ZM16.4773 24.8647L16.3328 25.2032C16.3328 25.2032 16.2252 26.1742 16.2252 26.4439C16.2252 26.7139 16.3328 28.9803 16.3328 28.9803H17.1962V25.7426L16.477 24.8644L16.4773 24.8647ZM16.495 29.4655L14.0674 29.5734L14.7684 30.0592L16.495 30.3289V29.4655ZM27.7704 17.9739L26.7458 19.1067L30.5223 21.9125L30.6302 20.6178L27.7704 17.9742V17.9739ZM26.6915 28.5484L24.8038 28.9257L25.0732 30.4368C25.7745 30.7605 26.9616 29.897 26.9616 29.897L26.6915 28.5484Z" fill="#49728B"/>
<path d="M15.9551 19.7547V20.2399L16.6409 20.9955L18.7987 21.9665L18.853 20.3484L17.358 20.1856L15.9551 19.7547ZM31.7471 27.4156L30.0206 27.9553L28.3644 28.7639L27.4845 28.603L26.7993 28.8721L27.3773 33.4047L29.4808 32.8107L33.4734 32.5949L34.0668 30.7608L32.9879 27.5777L31.7471 27.4156ZM24.8037 28.9257L21.6584 28.9263L16.6027 29.1957L16.6945 31.6782L17.2504 35.0221L18.3672 39.5551L20.8486 40.0943L24.9491 39.7706L25.0027 38.9611L24.5169 34.5912L24.8037 28.9257ZM25.2191 28.4948L24.032 25.4735L22.791 23.693C22.791 23.693 23.0607 22.9378 23.4386 22.9378H24.6794L25.8662 23.3694L25.7586 25.3656L25.2191 28.4948Z" fill="white"/>
<path d="M16.4411 20.51L16.2793 20.7261L17.1967 21.3731L18.7068 21.6965L18.6532 21.0498C18.1137 21.2116 16.4411 20.51 16.4411 20.51ZM23.9398 22.8297L22.6994 22.9912L24.8036 27.9548L25.2348 28.009L25.4506 27.4696C25.4506 27.4696 23.9395 24.5559 23.9395 24.1243C23.9395 24.1243 24.2096 23.477 24.5872 23.6385C24.9651 23.8007 25.7746 24.2322 25.7746 24.2322V23.2073L23.9398 22.8297ZM29.0656 28.4945L28.3643 28.7639L28.9577 31.7312C28.7419 31.6773 27.3393 32.3253 27.3393 32.3253L27.5002 33.1884L28.0946 32.9723L29.9823 32.7029L30.5221 33.4042L32.1404 33.4578L33.1118 33.242L33.9749 31.9477L33.9206 30.976L33.3276 29.2494C33.4894 30.5441 32.8417 31.7855 32.8417 31.7855C32.572 31.7855 29.5511 31.6233 29.5511 31.6233C29.5511 31.2997 29.0656 28.4945 29.0656 28.4945ZM24.9108 28.5482L24.1017 28.8721C24.1017 28.8721 23.8323 34.4834 24.6414 38.4757C24.6414 38.4757 23.0231 39.5006 20.6489 39.77L25.1806 39.6082L25.7203 39.2845L25.073 30.4366L24.9108 28.5482ZM26.321 34.3203C26.0888 34.3216 25.7437 34.4862 25.4998 34.4701C25.4642 35.3222 25.5837 36.6888 25.6238 37.5829C26.1904 37.5835 26.433 37.4592 26.856 37.3166C26.9037 36.2645 26.5226 35.2907 26.4131 34.3301C26.3831 34.3228 26.3519 34.3195 26.321 34.3203Z" fill="#DCD9D8"/>
<path d="M26.7455 20.1327C26.054 20.1648 25.1215 21.0466 24.6871 21.2012C24.7432 21.3627 24.8353 21.4904 24.8423 21.6964C25.1467 21.6214 25.5174 21.6728 25.7814 21.8024C25.4761 21.8365 25.1385 21.8346 24.9366 21.9801C24.8625 22.1936 24.954 22.4848 24.9044 22.7813C25.6288 22.9858 26.4562 23.0949 27.3714 23.1217C27.55 22.8905 27.6105 22.4488 27.5891 22.0119C27.5638 21.4851 27.4253 20.4018 27.1001 20.2122C26.9928 20.15 26.8736 20.127 26.7455 20.1327ZM19.6364 20.3686C18.9033 20.3844 18.9796 21.6646 19.0153 22.4482C19.0452 23.1101 19.39 23.8104 19.5389 24.2505C19.6096 24.4555 19.6254 24.6738 19.8008 24.7142C20.1112 24.7868 21.1352 24.3776 21.427 24.2186C22.0438 23.8823 22.5226 23.3479 23.0463 22.9892L23.0659 22.4662C22.751 22.3091 22.3876 22.1974 21.9248 22.1772C22.2387 22.0195 22.6999 22.0217 22.9858 21.834L22.994 21.6252C22.4722 21.5851 22.2731 21.3526 21.9292 21.1643C21.3664 20.857 20.521 20.5216 19.7942 20.3828C19.7422 20.3726 19.6893 20.3678 19.6364 20.3686ZM23.8732 21.4592C23.7337 21.4605 23.5675 21.5132 23.3779 21.64C23.3419 22.0372 23.4347 22.1668 23.5145 22.6227C24.6164 22.9675 24.6265 21.4542 23.8732 21.4592Z" fill="#D33833"/>
<path d="M26.6727 19.7551L24.6227 20.9419L24.5142 21.535V22.7218L25.2695 22.9918C25.2695 22.9918 24.8918 22.4524 25.1619 22.2906C25.4316 22.1287 25.7016 22.2906 25.8635 22.0208C26.0253 21.7508 25.8635 21.5889 25.9171 21.2653C25.9711 20.9416 26.2408 20.888 26.5105 20.834C26.7802 20.7804 27.5358 20.6722 27.6437 20.9419L27.32 19.9709L26.6727 19.7551ZM19.8787 20.0801C19.6115 20.0744 19.368 20.1185 19.1894 20.24C17.9209 21.1028 18.9434 23.0969 19.5648 24.2698C19.5122 23.5955 19.4556 22.9216 19.3951 22.248C19.2809 20.9924 19.697 21.2116 20.7857 21.2116C20.9523 21.2116 21.8094 21.4098 21.8709 21.5353C22.1652 22.1363 21.3788 22.0025 22.2097 22.4559C22.9113 22.8382 24.1505 22.2234 23.8672 21.3732C23.7085 21.1839 23.0407 21.3142 22.8012 21.1902L21.5368 20.5347C21.1684 20.3432 20.4668 20.0924 19.8787 20.0801ZM19.5645 24.2695C19.5778 24.4373 19.5916 24.6048 19.6046 24.7723L19.7976 24.7146C19.7333 24.5869 19.6528 24.4361 19.5648 24.2698L19.5645 24.2695Z" fill="#EF3D3A"/>
<path d="M21.3121 0.00201232C20.1796 0.0234642 19.072 0.211799 18.1489 0.551559C17.4628 0.803934 16.7981 1.02981 16.1955 1.38377C14.5832 2.33017 12.8714 2.96363 12.3935 4.86875C11.2155 5.39622 10.8603 6.90384 10.9196 8.65343C10.931 8.99446 11.1161 9.42065 11.0521 9.74149C11.0193 9.90427 10.7985 10.1128 10.7543 10.2188C10.1896 11.5649 10.6423 13.3344 11.2947 14.2912C11.689 14.8691 12.3421 15.3818 13.2033 15.5177C13.2377 16.0335 13.3617 16.4774 13.5998 17.0001C13.7506 17.3307 14.3137 17.9251 14.1065 18.3468C14.0024 18.5595 13.0853 19.021 12.7812 19.2037C11.7543 19.8195 11.0101 20.1971 10.0622 20.8794C9.44889 21.3211 8.48955 21.3779 8.64098 22.3962C8.74287 23.0833 9.13406 23.9351 9.35772 24.6241C9.6 25.3676 9.94702 26.0487 10.1464 26.8203C10.5896 28.54 10.6821 30.1602 10.79 31.8398C10.8322 32.4975 10.7622 33.1935 10.9329 33.5566C11.1089 33.932 11.7613 34.0518 12.2326 34.2708C13.5938 34.9001 15.0381 35.8614 16.8233 35.6705C17.2489 37.1015 17.6511 38.6255 18.1618 39.8789C19.9925 40.5369 22.8825 40.4341 24.7857 40.2054C25.3643 40.1353 25.9747 39.8498 26.1107 39.3482C26.07 39.0391 26.0249 38.7331 26.0445 38.3675C26.6394 38.2444 27.4492 38.1428 27.5802 37.4841C27.7638 36.5605 26.9969 35.2371 27.2527 34.2235C27.5972 34.1118 27.965 34.0244 27.9101 33.4805C28.4906 33.1783 29.1793 33.1108 29.9143 33.1392C30.009 33.3222 30.1437 33.4982 30.2648 33.5988C31.2945 33.8058 32.2917 33.8228 33.1466 33.5439C34.1142 33.2278 34.5757 31.2489 34.3545 30.3072C34.1974 29.64 33.8422 28.5469 33.5394 27.9008C32.7188 26.1468 30.2733 27.2478 28.9644 27.8983C29.5995 26.2279 30.1456 24.496 30.7058 22.6221C30.873 22.0605 31.2036 21.2646 31.1295 20.6829C31.0601 20.1359 30.2071 19.5611 29.7582 19.1276C29.5086 18.8872 28.3452 18.0039 28.2777 17.6733C28.2124 17.3534 28.7521 16.6288 28.9256 16.2663C29.1749 15.7477 29.3534 15.113 29.4761 14.6811C30.391 11.4646 30.484 7.04549 29.1761 4.40123C28.6808 3.39961 27.2959 2.01628 26.43 1.36105C25.1529 0.395718 23.1989 -0.0333202 21.3121 0.00201232ZM21.4629 0.897944C22.992 0.883117 24.6924 1.42257 25.8438 2.07212C26.806 2.61473 27.5158 3.66461 28.1928 4.53814C27.2436 4.25643 26.4356 4.74067 26.583 5.52367C27.3776 4.79525 28.7351 5.51578 29.1367 6.32117C29.5206 7.09092 29.5181 8.23197 29.5771 9.37649C29.72 12.152 29.0692 15.0155 27.6745 17.0216C27.3016 17.5572 26.9887 18.1427 26.4643 18.5115C25.2006 19.3989 23.2797 20.2034 21.6348 19.6516C19.4612 18.9223 18.4738 17.4739 17.2782 15.8155C17.3107 16.7266 17.9514 17.4743 18.5842 18.1711C19.1347 18.7784 19.7991 19.4646 20.514 19.7478C19.9177 19.6078 19.0022 19.5639 18.7537 20.0993C17.3624 20.0068 16.0696 19.8646 15.4116 18.9216C14.8929 18.1784 14.3661 16.9143 14.1298 15.9379C14.0816 15.7373 13.9989 15.3101 14.0191 15.2007C14.0967 14.777 14.8513 14.5909 14.5544 13.9987C14.0068 13.9937 13.8834 14.4972 13.3809 14.547C12.0796 14.6757 11.1616 12.8224 11.2206 11.704C11.2707 10.7532 12.0745 9.84338 13.174 9.96358C13.951 10.0488 14.215 10.8967 14.3658 11.6513C14.8138 11.6753 15.4608 11.6321 15.6728 11.2826C15.6422 10.4298 15.2463 9.7459 15.2734 8.96228C15.3245 7.48967 16.1267 6.16091 15.5078 4.71039C16.1703 3.20749 18.1139 2.02133 19.5515 1.30427C20.1083 1.02666 20.7679 0.905515 21.4632 0.898575L21.4629 0.897944ZM17.5075 1.63803C17.57 1.64813 17.6274 1.69671 17.6829 1.75602C17.6735 2.01187 17.4211 2.0065 17.2508 2.08852C16.9858 2.4144 16.5984 2.56677 16.276 2.92389C15.945 3.28983 15.575 4.27283 15.1365 4.38135C14.9166 4.43624 14.6655 4.3435 14.474 4.35611C13.9677 4.38798 13.6112 4.64729 13.0976 4.72174C13.7607 3.27216 15.8293 2.09925 17.4429 1.64214C17.4639 1.636 17.486 1.6346 17.5075 1.63803ZM20.2647 4.78421C19.4329 4.78515 18.4855 5.67446 18.2385 6.35303C18.1382 6.62875 17.9798 7.1701 18.3776 7.26632C18.8234 6.2729 19.554 5.31514 21.0244 5.65742C21.3067 5.19337 20.802 4.85235 20.4291 4.79619C20.3746 4.78807 20.3199 4.78406 20.2647 4.78421ZM15.0103 4.93563C15.5788 6.38237 14.6024 8.10168 14.9661 9.68375C15.0775 10.1683 15.4627 10.9204 14.8475 10.9368C14.8636 9.5582 13.1534 8.6834 11.8648 9.49384C11.7786 8.44838 11.6294 6.97861 12.3424 6.19435C13.0001 5.47004 13.9068 5.01923 15.0103 4.93563ZM28.1893 7.33225C28.1423 8.12628 28.4373 8.60422 28.642 9.16576C28.2881 9.38848 27.5994 9.24967 27.2003 9.42412C27.1719 10.5986 29.0174 10.0197 29.2982 9.36576C28.8786 8.75628 28.5912 8.02502 28.2587 7.33509L28.1893 7.33193V7.33225ZM21.7774 7.35023C21.5591 7.96981 22.1522 9.02159 22.4847 9.55347C22.0516 9.97399 21.2727 9.62476 20.6932 9.59763C20.1401 10.4712 21.773 10.6355 22.4737 10.4286C22.6655 10.3721 22.9973 10.0847 23.0431 9.95537C23.2377 9.40867 22.8453 9.16891 22.6434 8.97206C22.1954 8.53545 22.0926 7.92786 21.7774 7.35023ZM25.1053 7.92123C25.063 7.91555 25.0122 7.93069 24.9514 7.97486C24.9119 9.43106 25.994 10.6365 26.8009 11.6091C27.1953 12.0838 27.6704 12.3551 27.2328 13.0927C26.5274 13.3609 25.3858 14.129 24.405 13.9612C23.8844 13.8722 24.0018 13.2814 23.815 12.9602C23.456 13.4325 23.5967 14.147 23.9665 14.4682C25.6949 14.6391 26.8713 13.9022 27.9262 13.2243C27.8843 12.9586 28.2455 12.4798 28.1452 12.0804C28.1105 11.9428 27.7975 11.7435 27.6076 11.5356C26.8338 10.6917 25.7735 9.43075 25.352 8.44459C25.3141 8.35626 25.2886 7.94552 25.1053 7.92123ZM12.8083 10.6453C12.4086 10.639 12.0465 10.9024 11.961 11.5233C12.1383 11.4072 12.2812 11.0769 12.6007 11.234C12.32 11.7819 12.3875 12.8492 12.7695 13.1962C12.7673 12.5457 12.666 11.4337 13.2206 11.4674C13.609 11.4908 13.6875 12.3223 14.0181 12.511C14.2462 11.4138 13.4749 10.6554 12.8083 10.6453ZM28.5979 13.9136C27.7546 14.2984 27.0741 14.859 25.9725 14.9647C25.9192 15.1467 25.9419 15.6061 25.9713 15.908C27.412 15.878 28.107 14.8483 28.5979 13.9136ZM21.6941 14.5196C22.1153 15.6467 24.0138 16.0442 25.6195 15.9641C25.617 15.6303 25.6186 15.2922 25.5517 15.0183C24.3024 15.0549 22.6131 15.0026 21.6941 14.5196ZM21.5197 15.4212C20.708 15.4221 21.3925 15.8736 21.5301 16.0502C21.8146 16.4162 22.1484 17.0405 22.6683 17.3168C23.4879 17.7522 25.1157 17.5695 25.7063 17.3295C25.9246 17.2411 26.1006 16.996 26.1817 16.7891C24.3393 16.8332 22.1554 17.0168 21.5197 15.4212ZM27.6511 18.5222C28.2821 19.0305 28.6632 19.5087 29.2682 20.0523C29.5963 20.3466 30.2424 20.6993 30.3077 21.1753C30.344 21.441 30.1812 22.0918 30.1213 22.3905C29.8563 23.701 29.26 25.4323 28.6922 26.8055C28.4859 27.3046 28.2884 27.9286 28.0161 28.0365C27.2704 28.3318 26.3653 28.0078 25.7315 28.4024C26.5833 26.9244 27.5108 25.5282 28.3455 24.0325C28.2184 23.736 27.9067 23.6095 27.8161 23.2792C28.4023 22.1722 28.1329 18.7355 26.6369 19.4611C26.8461 19.1538 27.3953 18.9002 27.6511 18.5222ZM14.4885 19.3046C14.6245 19.251 15.6169 20.5422 15.7636 20.6469C16.5681 21.2179 17.5669 21.6691 18.501 22.1148C18.5581 22.5435 18.6902 23.0991 18.9231 23.8423C19.1795 24.6632 19.3912 25.8216 20.4758 25.2297C20.3726 25.6985 19.7701 25.9894 19.9363 26.5361C20.0404 26.879 21.1793 27.3027 21.5402 27.5065C22.2061 27.8819 22.8137 28.0895 23.3254 28.309C21.0004 28.3728 18.8171 28.562 16.6684 28.8545C16.411 28.4557 16.5148 27.8412 16.4876 27.2062C16.458 26.5165 16.7447 24.9619 16.4738 24.8654C16.1674 24.7565 16.11 25.3774 16.099 25.5143C16.0416 26.2424 16.4457 27.7841 16.0472 28.6557C15.6113 28.5324 15.3964 28.2046 14.9879 28.0557C14.8276 28.5605 15.3198 28.5848 15.2693 28.9053C15.2024 29.329 14.3995 28.9747 14.404 29.6047C14.9267 29.6886 15.7286 29.4422 16.2873 29.6779C16.4334 31.3918 16.6681 33.0158 16.9252 34.8364C14.7018 34.721 13.2626 33.6162 11.6237 32.8499C11.5218 29.2252 10.9442 25.4648 9.51388 22.3953C11.0143 21.2375 12.6932 20.0128 14.4888 19.3049L14.4885 19.3046ZM26.8177 20.133C26.9174 20.1378 27.0111 20.1627 27.0965 20.2125C27.4221 20.4024 27.5606 21.4858 27.5858 22.0126C27.607 22.4495 27.5461 22.8905 27.3682 23.1221C26.4527 23.0953 25.6255 22.9865 24.9012 22.782C24.9507 22.4855 24.8586 22.1937 24.9327 21.9798C25.1343 21.8347 25.4725 21.8372 25.7776 21.8031C25.5138 21.6732 25.1435 21.6217 24.839 21.6968C24.8318 21.4905 24.7394 21.363 24.6835 21.2015C25.1337 21.041 26.1202 20.0986 26.8177 20.133ZM25.1772 20.1731C24.793 20.4236 24.4658 20.7368 24.0971 21.0044C23.2791 21.0451 22.8327 20.9479 22.2317 20.4782C22.2412 20.4403 22.3017 20.4573 22.3043 20.411C23.1797 20.8012 24.2933 20.252 25.1772 20.1731ZM16.5501 20.1886C17.0066 20.5056 17.8899 20.4274 18.5622 20.5454C18.5969 20.7608 18.4227 21.0438 18.4259 21.3438C17.8602 21.3091 16.0829 20.6624 16.5501 20.1886ZM19.6329 20.3693C19.6818 20.3681 19.7341 20.3728 19.7906 20.3835C20.5174 20.5223 21.3629 20.8573 21.9257 21.1649C22.2696 21.353 22.4686 21.5851 22.9904 21.6255C22.9882 21.6949 22.985 21.7643 22.9825 21.8344C22.6967 22.0221 22.2352 22.0199 21.9216 22.1776C22.3841 22.1978 22.7481 22.3091 23.063 22.4662L23.0425 22.9896C22.5185 23.3483 22.0399 23.8824 21.4231 24.2187C21.1313 24.3777 20.1076 24.7871 19.7975 24.7146C19.6218 24.6739 19.606 24.4559 19.5357 24.2509C19.3865 23.8108 19.0423 23.1107 19.012 22.4489C18.9764 21.665 18.8997 20.3841 19.6329 20.3693ZM23.8267 21.4618C23.8699 21.4583 23.9109 21.4596 23.9497 21.4653C24.6204 21.564 24.5718 22.9549 23.5106 22.623C23.4308 22.1675 23.3384 22.0375 23.374 21.6403C23.545 21.5265 23.6964 21.4722 23.8267 21.4618ZM24.4375 23.0436C24.8217 23.0846 25.1258 23.6146 25.6741 23.5798C25.5861 25.0096 25.6321 26.4443 25.2331 27.7541C24.4895 26.3907 24.052 24.7446 23.0895 23.5846C23.191 23.4767 23.2819 23.3571 23.3816 23.2467C23.8176 23.4291 24.1021 23.0076 24.4375 23.0436ZM26.6483 23.4985C27.1776 23.4944 27.6111 23.8404 27.8493 24.2231C27.1035 25.5007 26.3899 26.8125 25.5053 27.9393C25.876 26.8484 26.035 25.0228 26.0911 23.631C26.265 23.5469 26.4551 23.5017 26.6483 23.4985ZM22.6197 23.9852C23.503 25.1064 24.0406 26.5484 24.6324 27.9403C23.2343 27.5188 21.8058 26.8349 20.5805 26.1415C20.8209 25.0991 21.7635 24.5591 22.6197 23.9852ZM31.9295 27.685C32.3135 27.6945 32.6949 28.0062 32.8617 28.2589C33.1633 28.7144 33.445 30.0555 33.6031 30.7675C33.8387 31.8272 33.3091 32.8587 32.4665 33.0632C31.8532 33.2121 30.9125 33.2515 30.5109 33.0575C31.0024 32.789 31.7409 32.7874 32.3097 32.6032C31.4948 32.2524 30.2891 32.583 29.3092 32.5218C29.1909 31.312 29.1017 30.0003 28.8149 29.0453C29.3868 28.4374 30.7686 28.2914 31.5532 27.7895C31.6651 27.7172 31.7964 27.6808 31.9295 27.685ZM31.863 28.8138C30.8588 28.8434 30.0743 29.1094 29.6263 29.7406C30.4411 29.7927 31.0279 28.981 31.863 28.8138ZM27.907 29.0614C27.978 29.0646 28.048 29.0725 28.1152 29.0876C28.649 30.0056 28.7638 31.5322 28.7461 32.6401C28.4133 32.7045 28.1972 32.895 27.7934 32.8824C27.6903 31.6202 27.3972 30.293 27.2767 29.0905C27.4691 29.0867 27.6934 29.0526 27.907 29.0614ZM21.7228 29.075C22.7765 29.058 23.7986 29.1198 24.6835 29.304C24.8996 30.7088 24.8192 32.0944 24.9769 33.4714C25.1857 35.3036 25.0293 37.3939 25.387 39.1107C23.4396 39.7142 20.7843 39.6558 18.5811 38.987C17.5883 35.945 17.047 33.0575 16.6734 29.6223C18.1205 29.3517 19.966 29.1034 21.7228 29.075ZM26.3994 29.1961C26.7473 30.4539 26.7265 32.0543 26.8975 33.4761C26.3713 33.5916 25.9864 33.648 25.4201 33.7332C25.3075 32.2562 25.2214 30.8009 25.2416 29.3258C25.6429 29.1914 25.9968 29.1996 26.3994 29.1961ZM30.9692 29.9205C30.5718 29.9255 30.214 30.0119 30.0607 30.246C30.7516 30.3028 31.5503 30.1924 32.2311 30.1205C31.9207 30.0132 31.4197 29.9145 30.9692 29.9205ZM30.8554 30.9426C30.4995 30.947 30.1856 31.0145 30.0244 31.1877C30.7513 31.2486 31.7021 31.2637 32.4671 31.2473C32.157 31.1028 31.4484 30.935 30.8554 30.9426ZM26.2123 34.3295C26.2867 34.3178 26.3542 34.3153 26.4101 34.3301C26.5199 35.2907 26.9006 36.2642 26.853 37.3163C26.4303 37.4589 26.1874 37.5838 25.6205 37.5829C25.5807 36.6888 25.4608 35.3222 25.4968 34.4698C25.7056 34.4837 25.9892 34.3645 26.2123 34.3295Z" fill="#231F20"/>
<path d="M26.6494 23.4981C26.4562 23.5013 26.266 23.5465 26.092 23.6306C26.0359 25.0224 25.8775 26.848 25.5065 27.9386C26.3914 26.8121 27.1047 25.5 27.8504 24.2227C27.6119 23.8401 27.1788 23.494 26.6494 23.4981ZM22.6209 23.9852C21.7647 24.5593 20.8227 25.0994 20.582 26.1417C21.8073 26.8351 23.2358 27.5187 24.6339 27.9402C24.0421 26.549 23.5045 25.1067 22.6209 23.9852Z" fill="#81B0C4"/>
<path d="M25.178 20.1729C24.7937 20.4236 24.4666 20.7366 24.0978 21.0044C23.2798 21.0448 22.8334 20.9476 22.2324 20.4779C22.2422 20.4401 22.3028 20.4571 22.305 20.4107C23.1804 20.8009 24.2937 20.2517 25.178 20.1729Z" fill="#F0D6B7"/>
<path d="M24.9645 24.2056C24.9645 24.2843 24.9332 24.3598 24.8776 24.4154C24.8219 24.4711 24.7465 24.5023 24.6678 24.5023C24.5891 24.5023 24.5136 24.4711 24.458 24.4154C24.4024 24.3598 24.3711 24.2843 24.3711 24.2056C24.3711 24.1269 24.4024 24.0515 24.458 23.9958C24.5136 23.9402 24.5891 23.9089 24.6678 23.9089C24.7465 23.9089 24.8219 23.9402 24.8776 23.9958C24.9332 24.0515 24.9645 24.1269 24.9645 24.2056ZM25.2613 25.5814C25.2613 25.6601 25.2301 25.7356 25.1744 25.7913C25.1187 25.847 25.0432 25.8783 24.9645 25.8783C24.8858 25.8783 24.8103 25.847 24.7546 25.7913C24.6989 25.7356 24.6676 25.6601 24.6676 25.5814C24.6676 25.5027 24.6989 25.4272 24.7546 25.3715C24.8103 25.3158 24.8858 25.2845 24.9645 25.2845C25.0432 25.2845 25.1187 25.3158 25.1744 25.3715C25.2301 25.4272 25.2613 25.5027 25.2613 25.5814Z" fill="#1D1919"/>
</g>
<defs>
<clipPath id="clip0_82_815">
<rect width="40.38" height="40.38" fill="white"/>
</clipPath>
</defs>
</svg>
