<svg width="37" height="40" viewBox="0 0 37 40" fill="none" xmlns="http://www.w3.org/2000/svg">
<path d="M33.9349 19.6846C33.9349 17.6295 32.2688 15.9633 30.2136 15.9633C30.0813 15.9633 29.951 15.9704 29.8224 15.984L34.9336 0.908936H13.2126L18.3168 15.9708C18.2414 15.9661 18.166 15.9636 18.0905 15.9635C16.0354 15.9635 14.3692 17.6293 14.3692 19.6848C14.3692 21.346 15.458 22.7525 16.9605 23.231C16.167 24.6056 15.1683 25.8438 14.0345 26.9136C12.4927 28.368 10.7282 29.471 8.81985 30.1505C6.54768 28.9832 5.47477 26.3874 6.44285 24.1114C6.55221 23.8543 6.66384 23.5938 6.7705 23.3344C8.41655 22.9502 9.64329 21.4746 9.64329 19.7114C9.64329 17.6561 7.97713 15.9901 5.92184 15.9901C3.86655 15.9901 2.20053 17.6561 2.20053 19.7114C2.20053 20.9717 2.8275 22.085 3.78609 22.7581C2.86504 24.8552 1.51109 27.0501 1.08924 29.5938C0.583666 32.6422 1.08754 35.8782 3.72419 37.7057C9.8647 41.9616 16.5302 35.0674 23.5581 33.3342C26.105 32.7062 28.9009 32.8074 31.1449 31.5078C32.83 30.5318 33.941 28.9142 34.2562 27.0984C34.5679 25.3044 34.1137 23.5183 33.0694 22.07C33.6297 21.4015 33.9362 20.5568 33.9349 19.6846Z" fill="#99425B"/>
<path d="M33.3601 26.9427C33.0864 28.5194 32.1127 29.8964 30.6887 30.7213C29.3613 31.4901 27.7706 31.7195 26.0863 31.9623C25.1841 32.0924 24.2512 32.2271 23.3398 32.4518C20.9299 33.046 18.5957 34.2055 16.3385 35.3267C11.8211 37.5705 7.9199 39.5081 4.24137 36.9586C1.54678 35.0911 1.67116 31.6358 1.98507 29.7424C2.27603 27.9882 3.06265 26.3726 3.8232 24.8103C3.95277 24.5447 4.0813 24.2787 4.20879 24.0122C4.59217 24.1654 4.99446 24.2663 5.40479 24.3122C4.6305 26.8675 5.84818 29.646 8.4038 30.9588L8.75369 31.1386L9.12398 31.0067C11.1444 30.2871 13.0062 29.1326 14.6575 27.5745C15.7249 26.5675 16.6427 25.4534 17.397 24.2629C17.6263 24.2975 17.8579 24.3149 18.0898 24.3149C20.4355 24.3149 22.3779 22.5613 22.6785 20.2965C23.6386 20.2614 24.6584 20.2611 25.6241 20.2962C25.9244 22.5613 27.8671 24.315 30.2128 24.315C31.1936 24.315 32.1033 24.0076 32.8528 23.4855C33.3731 24.5506 33.5673 25.749 33.3601 26.9427ZM5.92127 16.8989C7.47212 16.8989 8.73371 18.1606 8.73371 19.7115C8.73371 20.2685 8.57024 20.7879 8.28962 21.2254C7.82216 21.9545 7.02746 22.4542 6.11449 22.5166C6.0506 22.5208 5.98615 22.5239 5.92127 22.5239C5.57563 22.5239 5.24458 22.4609 4.93846 22.3464C4.32195 22.1146 3.80567 21.6749 3.47869 21.1031C3.23589 20.6795 3.10832 20.1997 3.10868 19.7115C3.10868 18.1606 4.37042 16.8989 5.92127 16.8989ZM15.2775 19.6847C15.2775 18.2756 16.3191 17.1057 17.6725 16.9034C17.8088 16.8829 17.9482 16.8723 18.09 16.8723C18.9916 16.8723 19.7944 17.2994 20.3092 17.9612C20.4381 18.1262 20.5482 18.3051 20.6375 18.4945C20.8123 18.8669 20.9028 19.2733 20.9024 19.6847C20.9024 19.9095 20.8752 20.1281 20.8252 20.3377C20.5511 21.4852 19.5727 22.3623 18.3737 22.483C18.2805 22.4923 18.1859 22.4971 18.09 22.4971C17.549 22.4976 17.0195 22.3411 16.5657 22.0465C15.7915 21.5449 15.2775 20.6739 15.2775 19.6847ZM27.0159 16.3402C26.4038 16.9244 25.9634 17.6649 25.7422 18.4816C24.6822 18.4425 23.621 18.4425 22.5609 18.4816C22.3229 17.5988 21.8297 16.82 21.166 16.2284L24.0764 10.3437L27.0159 16.3402ZM14.4796 1.81802H33.6651L29.1336 15.1826C28.9387 15.2293 28.747 15.2887 28.5598 15.3604L24.0834 6.22877L19.5944 15.3058C19.3987 15.2387 19.1987 15.1847 18.9957 15.1445L14.4796 1.81802ZM33.0252 19.6848C33.0252 19.9667 32.9831 20.239 32.9057 20.4961C32.7218 21.1014 32.3401 21.6274 31.8216 21.9899C31.3503 22.3206 30.7885 22.4978 30.2128 22.4973C28.9142 22.4973 27.8188 21.6124 27.4967 20.4139C27.4327 20.1762 27.4003 19.9311 27.4003 19.6848C27.4003 19.3004 27.478 18.9338 27.6182 18.5998C27.6906 18.4288 27.7797 18.2655 27.8842 18.1122C28.3904 17.3651 29.2444 16.8724 30.2128 16.8724C30.3016 16.8724 30.3891 16.8769 30.476 16.8851C31.9039 17.0182 33.0254 18.2227 33.0254 19.6848H33.0252ZM34.8431 19.6848C34.8431 17.4243 33.2143 15.5381 31.0691 15.1353L36.2007 0H11.9442L17.0838 15.1659C15.0131 15.6267 13.4598 17.4771 13.4598 19.6847C13.4598 21.3424 14.3358 22.7983 15.6487 23.6165C15.0172 24.5574 14.2684 25.4427 13.4102 26.2525C12.0492 27.5363 10.533 28.51 8.89846 29.1507C7.25199 28.1165 6.55603 26.166 7.27876 24.467L7.33542 24.3339L7.44167 24.084C9.25005 23.4532 10.5514 21.7321 10.5514 19.7115C10.5514 17.1583 8.47434 15.0812 5.92127 15.0812C3.3682 15.0812 1.29081 17.1583 1.29081 19.7115C1.29081 21.0001 1.8206 22.1671 2.67309 23.0074C2.5141 23.3443 2.3527 23.68 2.18891 24.0146C1.40938 25.6154 0.526007 27.4299 0.191839 29.445C-0.471679 33.4468 0.598677 36.6458 3.20586 38.4526C4.78788 39.549 6.39454 39.9802 8.01127 39.9802C11.0555 39.9802 14.1351 38.4508 17.1471 36.9546C19.3163 35.8773 21.5594 34.7632 23.7751 34.2167C24.5995 34.0134 25.4477 33.891 26.3458 33.7615C28.1269 33.5045 29.9684 33.2389 31.5997 32.2942C33.4907 31.1989 34.785 29.3617 35.1511 27.2538C35.4652 25.4442 35.0872 23.6317 34.165 22.0944C34.6093 21.3693 34.8441 20.5352 34.8431 19.6847V19.6848Z" fill="white"/>
</svg>
