<svg width="39" height="39" viewBox="0 0 39 39" fill="none" xmlns="http://www.w3.org/2000/svg">
<g id="js">
<g id="js_2">
<path id="Vector" d="M38.5118 0H0V38.5118H38.5118V0Z" fill="#F7DF1E"/>
<path id="Vector_2" d="M25.8666 30.0876C26.6424 31.3543 27.6516 32.2853 29.4366 32.2853C30.9361 32.2853 31.8941 31.5358 31.8941 30.5003C31.8941 29.2593 30.9099 28.8198 29.2594 28.0979L28.3546 27.7097C25.7432 26.5971 24.0083 25.2034 24.0083 22.2569C24.0083 19.5427 26.0763 17.4766 29.3083 17.4766C31.6092 17.4766 33.2634 18.2774 34.4554 20.3741L31.6373 22.1836C31.0168 21.071 30.3475 20.6327 29.3083 20.6327C28.2483 20.6327 27.5765 21.3051 27.5765 22.1836C27.5765 23.2692 28.2489 23.7087 29.8016 24.3812L30.7063 24.7687C33.7811 26.0873 35.5172 27.4316 35.5172 30.4538C35.5172 33.712 32.9577 35.497 29.5204 35.497C26.1595 35.497 23.9881 33.8954 22.9257 31.7962L25.8666 30.0876ZM13.0826 30.4012C13.6511 31.4099 14.1682 32.2626 15.4116 32.2626C16.6006 32.2626 17.3507 31.7974 17.3507 29.9886V17.6832H20.9695V30.0375C20.9695 33.7848 18.7725 35.4903 15.5657 35.4903C12.6681 35.4903 10.9901 33.9908 10.1367 32.1847L13.0826 30.4012Z" fill="black"/>
</g>
</g>
</svg>
