<svg width="42" height="41" viewBox="0 0 42 41" fill="none" xmlns="http://www.w3.org/2000/svg">
<path d="M37.4827 9.59471C37.2541 8.86321 36.7055 8.26886 36.0197 7.9031L22.0754 1.22811C21.7096 1.04523 21.2981 0.999512 20.9324 0.999512C20.5666 0.999512 20.1552 0.999512 19.7894 1.09095L5.84506 7.81167C5.15927 8.1317 4.65636 8.72605 4.47348 9.50327L1.04455 24.5449C0.907389 25.3221 1.09027 26.0993 1.54746 26.7394L11.1942 38.6721C11.7428 39.2207 12.5201 39.5865 13.2973 39.6322H28.6589C29.4819 39.7236 30.2591 39.3579 30.762 38.6721L40.4087 26.7394C40.8659 26.0993 41.0488 25.3221 40.9574 24.5449L37.4827 9.59471Z" fill="#E8F7FF" stroke="#E8F7FF" stroke-width="1.99901" stroke-miterlimit="10"/>
<path d="M37.4827 9.59471C37.2541 8.86321 36.7055 8.26886 36.0197 7.9031L22.0754 1.22811C21.7096 1.04523 21.2981 0.999512 20.9324 0.999512C20.5666 0.999512 20.1552 0.999512 19.7894 1.09095L5.84506 7.81167C5.15927 8.1317 4.65636 8.72605 4.47348 9.50327L1.04455 24.5449C0.907389 25.3221 1.09027 26.0993 1.54746 26.7394L11.1942 38.6721C11.7428 39.2207 12.5201 39.5865 13.2973 39.6322H28.6589C29.4819 39.7236 30.2591 39.3579 30.762 38.6721L40.4087 26.7394C40.8659 26.0993 41.0488 25.3221 40.9574 24.5449L37.4827 9.59471Z" fill="#065893"/>
<path d="M35.3353 23.9504C35.2896 23.9504 35.2439 23.9504 35.2439 23.9047C35.2439 23.859 35.1524 23.859 35.061 23.859C34.8781 23.8132 34.6952 23.8132 34.5124 23.8132C34.4209 23.8132 34.3295 23.8132 34.238 23.7675H34.1923C33.6894 23.7218 33.1408 23.6304 32.6379 23.4932C32.5007 23.4475 32.3636 23.3103 32.3178 23.1732L31.9521 23.0817C32.135 21.7559 32.0435 20.3843 31.7692 19.0584C31.4492 17.7326 30.9005 16.4525 30.169 15.3095L30.4433 15.0352V14.9894C30.4433 14.8523 30.4891 14.6694 30.5805 14.578C30.992 14.2122 31.4035 13.9379 31.8606 13.6636C31.9521 13.6179 32.0435 13.5721 32.135 13.5264C32.3178 13.435 32.455 13.3435 32.6379 13.2521C32.6836 13.2064 32.7293 13.2064 32.775 13.1607C32.8207 13.115 32.775 13.115 32.775 13.0692C33.1865 12.7492 33.2779 12.2006 32.9579 11.7891C32.8207 11.6062 32.5464 11.4691 32.3178 11.4691C32.0892 11.4691 31.8606 11.5605 31.6778 11.6977L31.632 11.7434C31.5863 11.7891 31.5406 11.8348 31.4949 11.8348C31.3577 11.972 31.2206 12.1091 31.1291 12.2463C31.0834 12.3377 30.992 12.3834 30.9463 12.4292C30.6262 12.7949 30.2148 13.1607 29.8033 13.435C29.7118 13.4807 29.6204 13.5264 29.529 13.5264C29.4832 13.5264 29.3918 13.5264 29.3461 13.4807H29.3004L28.9346 13.7093C28.5689 13.3435 28.1574 12.9778 27.7916 12.612C26.1 11.2862 23.9969 10.4632 21.8481 10.2346L21.8024 9.86889V9.91461C21.6653 9.82318 21.6196 9.68602 21.5738 9.54886C21.5738 9.04595 21.5738 8.54304 21.6653 7.99441V7.94869C21.6653 7.85725 21.711 7.76581 21.711 7.67438C21.7567 7.4915 21.7567 7.30862 21.8024 7.12575V6.85143C21.8481 6.39424 21.4824 5.93705 21.0252 5.89133C20.7509 5.84561 20.4766 5.98277 20.248 6.21136C20.0651 6.39424 19.9737 6.62283 19.9737 6.85143V7.08003C19.9737 7.2629 20.0194 7.44578 20.0651 7.62866C20.1108 7.72009 20.1108 7.81153 20.1108 7.90297V7.94869C20.2023 8.4516 20.2023 8.95451 20.2023 9.50314C20.1565 9.6403 20.1108 9.77746 19.9737 9.86889V9.96033L19.9279 10.3261C19.425 10.3718 18.9221 10.4632 18.3735 10.5547C16.2247 11.0119 14.2588 12.1549 12.75 13.755L12.4757 13.5721H12.43C12.3843 13.5721 12.3386 13.6179 12.2471 13.6179C12.1557 13.6179 12.0642 13.5721 11.9728 13.5264C11.5613 13.2064 11.1499 12.8406 10.8298 12.4749C10.7841 12.3834 10.6927 12.3377 10.647 12.292C10.5098 12.1549 10.4184 12.0177 10.2812 11.8805C10.2355 11.8348 10.1898 11.8348 10.144 11.7891C10.0983 11.7434 10.0983 11.7434 10.0983 11.7434C9.91545 11.6062 9.68685 11.5148 9.45826 11.5148C9.18394 11.5148 8.95535 11.6062 8.81819 11.8348C8.54387 12.2463 8.63531 12.7949 9.00107 13.115C9.04678 13.115 9.04678 13.1607 9.04678 13.1607C9.04678 13.1607 9.13822 13.2521 9.18394 13.2521C9.3211 13.3435 9.50398 13.435 9.68685 13.5264C9.77829 13.5721 9.86973 13.6179 9.96117 13.6636C10.4184 13.9379 10.8756 14.2122 11.2413 14.578C11.3327 14.6694 11.4242 14.8523 11.3785 14.9894V14.9437L11.6528 15.218C11.6071 15.3095 11.5613 15.3552 11.5156 15.4466C10.0983 17.6869 9.50398 20.3386 9.91545 22.9446L9.5497 23.036C9.5497 23.0817 9.50398 23.0817 9.50398 23.0817C9.45826 23.2189 9.3211 23.3103 9.18394 23.4018C8.68103 23.5389 8.17812 23.6304 7.62949 23.6761C7.53805 23.6761 7.44661 23.6761 7.35518 23.7218C7.1723 23.7218 6.98942 23.7675 6.80655 23.7675C6.76083 23.7675 6.71511 23.8132 6.62367 23.8132C6.57795 23.8132 6.57795 23.8132 6.53223 23.859C6.02932 23.9504 5.70929 24.4076 5.80073 24.9105C5.89216 25.322 6.30364 25.5963 6.71511 25.5506C6.80655 25.5506 6.85227 25.5506 6.9437 25.5048C6.98942 25.5048 6.98942 25.5048 6.98942 25.4591C6.98942 25.4134 7.12658 25.4591 7.1723 25.4591C7.35518 25.4134 7.53805 25.322 7.67521 25.2762C7.76665 25.2305 7.85809 25.1848 7.94953 25.1848H7.99524C8.49815 25.0019 8.95535 24.8648 9.50398 24.7733H9.5497C9.68685 24.7733 9.82401 24.8191 9.91545 24.9105C9.96117 24.9105 9.96117 24.9562 9.96117 24.9562L10.3726 24.9105C11.0584 27.0136 12.3386 28.8881 14.1216 30.2596C14.5331 30.5797 14.8988 30.854 15.356 31.0826L15.1274 31.4026C15.1274 31.4483 15.1732 31.4483 15.1732 31.4483C15.2646 31.5855 15.2646 31.7684 15.2189 31.9055C15.036 32.3627 14.7617 32.8199 14.4874 33.2314V33.2771C14.4416 33.3685 14.3959 33.4143 14.3045 33.5057C14.213 33.5971 14.1216 33.78 13.9845 33.9629C13.9387 34.0086 13.9387 34.0543 13.893 34.1C13.893 34.1 13.893 34.1458 13.8473 34.1458C13.6187 34.603 13.8016 35.1516 14.213 35.3802C14.3045 35.4259 14.4416 35.4716 14.5331 35.4716C14.8988 35.4716 15.2189 35.243 15.4017 34.923C15.4017 34.923 15.4017 34.8773 15.4475 34.8773C15.4475 34.8316 15.4932 34.7858 15.5389 34.7401C15.5846 34.5572 15.6761 34.4201 15.7218 34.2372L15.8132 33.9629C15.9504 33.46 16.179 33.0028 16.4076 32.5456C16.499 32.4084 16.6362 32.317 16.7733 32.2713C16.819 32.2713 16.819 32.2713 16.819 32.2256L17.0019 31.8598C18.2821 32.3627 19.6079 32.5913 20.9795 32.5913C21.8024 32.5913 22.6254 32.4999 23.4483 32.2713C23.9512 32.1798 24.4541 31.997 24.9113 31.8598L25.0942 32.1798C25.1399 32.1798 25.1399 32.1798 25.1399 32.2256C25.2771 32.2713 25.4142 32.3627 25.5057 32.4999C25.7343 32.9571 25.9629 33.4143 26.1 33.9172V33.9629L26.1915 34.2372C26.2372 34.4201 26.2829 34.603 26.3743 34.7401C26.4201 34.7858 26.4201 34.8316 26.4658 34.8773C26.4658 34.8773 26.4658 34.923 26.5115 34.923C26.6944 35.243 27.0144 35.4716 27.3802 35.4716C27.5173 35.4716 27.6088 35.4259 27.7459 35.3802C27.9288 35.2887 28.1117 35.1059 28.1574 34.8773C28.2031 34.6487 28.2031 34.4201 28.1117 34.1915C28.1117 34.1458 28.066 34.1458 28.066 34.1458C28.066 34.1 28.0202 34.0543 27.9745 34.0086C27.8831 33.8257 27.7916 33.6886 27.6545 33.5514C27.6088 33.46 27.563 33.4143 27.4716 33.3228V33.2314C27.1516 32.8199 26.923 32.3627 26.7401 31.9055C26.6944 31.7684 26.6944 31.5855 26.7858 31.4483C26.7858 31.4026 26.8315 31.4026 26.8315 31.4026L26.6944 31.0369C29.0261 29.6196 30.8091 27.425 31.632 24.8191L31.9978 24.8648C32.0435 24.8648 32.0435 24.8191 32.0435 24.8191C32.135 24.7276 32.2721 24.6819 32.4093 24.6819H32.455C32.9579 24.7733 33.4608 24.9105 33.918 25.0934H33.9637C34.0552 25.1391 34.1466 25.1848 34.238 25.1848C34.4209 25.2762 34.5581 25.3677 34.7409 25.4134C34.7867 25.4134 34.8324 25.4591 34.9238 25.4591C34.9695 25.4591 34.9695 25.4591 35.0153 25.5048C35.1067 25.5506 35.1524 25.5506 35.2439 25.5506C35.6553 25.5506 36.0211 25.2762 36.1582 24.9105C36.1125 24.4076 35.7468 24.0418 35.3353 23.9504ZM22.1225 22.5331L20.888 23.1274L19.6536 22.5331L19.3336 21.2072L20.2023 20.11H21.5738L22.4425 21.2072L22.1225 22.5331ZM29.5747 19.5614C29.8033 20.5215 29.849 21.4816 29.7576 22.4417L25.4142 21.2072C25.0028 21.1158 24.7742 20.7043 24.8656 20.2929C24.9113 20.1557 24.957 20.0643 25.0485 19.9728L28.4774 16.8639C28.9803 17.6869 29.3461 18.6013 29.5747 19.5614ZM27.1058 15.1723L23.3569 17.824C23.0368 18.0069 22.5797 17.9612 22.3511 17.6412C22.2596 17.5497 22.2139 17.4583 22.2139 17.3211L21.9396 12.7035C23.9512 12.9321 25.7343 13.8007 27.1058 15.1723ZM18.8307 12.8406L19.7451 12.6578L19.5165 17.2297C19.5165 17.6412 19.1507 17.9612 18.7392 17.9612C18.6021 17.9612 18.5106 17.9155 18.3735 17.8697L14.5788 15.1723C15.7675 14.0293 17.2305 13.2064 18.8307 12.8406ZM13.2529 16.8639L16.6362 19.8814C16.9562 20.1557 17.0019 20.6129 16.7276 20.9329C16.6362 21.0701 16.5447 21.1158 16.3618 21.1615L11.9271 22.4417C11.7899 20.5215 12.2471 18.5555 13.2529 16.8639ZM12.4757 24.5905L17.0019 23.8132C17.3677 23.8132 17.7334 24.0418 17.7791 24.4076C17.8249 24.5447 17.8249 24.7276 17.7334 24.8648L15.9961 29.0709C14.3959 28.0194 13.1158 26.4192 12.4757 24.5905ZM22.854 30.2596C22.2139 30.3968 21.5738 30.4882 20.888 30.4882C19.9279 30.4882 18.9221 30.3054 18.0077 30.031L20.248 25.962C20.4766 25.6877 20.8423 25.5963 21.1624 25.7792C21.2995 25.8706 21.391 25.962 21.5281 26.0992L23.7226 30.0768C23.4483 30.1225 23.174 30.1682 22.854 30.2596ZM28.4317 26.2821C27.7459 27.3793 26.7858 28.3394 25.6886 29.0252L23.9055 24.7276C23.8141 24.3619 23.9969 23.9961 24.317 23.859C24.4541 23.8132 24.5913 23.7675 24.7285 23.7675L29.3004 24.5447C29.0718 25.1848 28.7975 25.7792 28.4317 26.2821Z" fill="#E8F7FF"/>
</svg>
