<svg width="19" height="41" viewBox="0 0 19 41" fill="none" xmlns="http://www.w3.org/2000/svg">
<path d="M9.0095 0.111084L10.0953 2.15041C10.3394 2.52674 10.6038 2.85985 10.9153 3.17007C11.8286 4.07191 12.6798 5.03443 13.4632 6.05106C15.303 8.46672 16.5438 11.1494 17.43 14.0507C17.9615 15.823 18.2501 17.6411 18.2717 19.4796C18.3607 24.9759 16.4765 29.6953 12.6775 33.6176C12.0596 34.2395 11.392 34.8102 10.6814 35.3238C10.3051 35.3238 10.1271 35.0352 9.97196 34.7694C9.68949 34.2767 9.50149 33.7356 9.41763 33.1738C9.28413 32.5089 9.1964 31.844 9.23963 31.1574V30.8472C9.20911 30.7811 8.87728 0.267466 9.0095 0.111084Z" fill="#599636"/>
<path d="M9.01053 0.04374C8.96603 -0.045258 8.92153 0.0221262 8.87703 0.0653538C8.89864 0.510344 8.74353 0.907021 8.50069 1.2859C8.2337 1.66223 7.88025 1.95084 7.52553 2.26106C5.55486 3.96728 4.00374 6.02822 2.76158 8.33327C1.10876 11.4355 0.256921 14.7602 0.0153544 18.2604C-0.0952576 19.5229 0.414575 23.9779 0.812524 25.2632C1.8983 28.6757 3.84863 31.5351 6.37491 34.0168C6.99535 34.6144 7.65903 35.1687 8.34558 35.7014C8.54519 35.7014 8.56681 35.5235 8.61258 35.3912C8.70009 35.1083 8.76681 34.8193 8.81219 34.5267L9.25718 31.2032L9.01053 0.04374Z" fill="#6CAC48"/>
<path d="M10.0964 36.6738C10.1409 36.1653 10.385 35.7432 10.6508 35.3223C10.3838 35.2117 10.1854 34.9918 10.0303 34.7464C9.89656 34.5141 9.78585 34.2692 9.69975 34.0153C9.38953 33.0847 9.32341 32.1082 9.23442 31.1572V30.5813C9.1238 30.6703 9.10092 31.423 9.10092 31.5348C9.03622 32.54 8.90283 33.5395 8.7017 34.5264C8.63558 34.9257 8.59108 35.3236 8.3457 35.6783C8.3457 35.7228 8.3457 35.7673 8.36732 35.8334C8.76654 37.0082 8.87588 38.2046 8.94326 39.4238V39.8688C8.94326 40.4003 8.92165 40.2884 9.36283 40.4664C9.54082 40.5325 9.73916 40.5554 9.91716 40.6876C10.0507 40.6876 10.0723 40.577 10.0723 40.488L10.0062 39.757V37.7176C9.98454 37.3616 10.0507 37.0082 10.0952 36.6751L10.0964 36.6738Z" fill="#C2BFBF"/>
</svg>
