<svg width="41" height="41" viewBox="0 0 41 41" fill="none" xmlns="http://www.w3.org/2000/svg">
<path d="M37.4777 31.3566C35.264 31.3006 33.5482 31.5253 32.1092 32.1432C31.6941 32.3116 31.0298 32.3118 30.9745 32.8455C31.1959 33.0703 31.2236 33.4355 31.4173 33.7444C31.7497 34.3061 32.3305 35.0646 32.8563 35.4581C33.4373 35.9074 34.0187 36.3567 34.6273 36.75C35.7066 37.4243 36.9244 37.8174 37.9759 38.4916C38.5849 38.8846 39.1933 39.3906 39.8022 39.8119C40.1066 40.0363 40.3002 40.4018 40.6878 40.5421V40.458C40.4939 40.205 40.4386 39.84 40.245 39.559C39.9686 39.2781 39.6915 39.0253 39.4147 38.7443C38.6123 37.649 37.6161 36.6938 36.5369 35.9074C35.6514 35.2893 33.7141 34.4467 33.3545 33.4072C33.3545 33.4072 33.3266 33.3793 33.2991 33.3512C33.9078 33.295 34.6273 33.0703 35.2086 32.9017C36.1494 32.6487 37.0072 32.7051 37.9759 32.4522C38.4186 32.3399 38.8614 32.1994 39.304 32.0589V31.8063C38.8062 31.3006 38.4464 30.6265 37.9205 30.1489C36.5092 28.9126 34.9594 27.705 33.3545 26.6938C32.4965 26.1319 31.3895 25.7667 30.4763 25.2893C30.1445 25.1205 29.5909 25.0364 29.3973 24.7555C28.899 24.1376 28.6222 23.3231 28.2626 22.5926C27.4603 21.0475 26.6852 19.3341 25.9933 17.705C25.4954 16.6094 25.191 15.5138 24.5821 14.5027C21.7318 9.72736 18.6324 6.83408 13.8728 3.99682C12.8488 3.40702 11.6312 3.15418 10.3306 2.84532C9.63899 2.81706 8.94693 2.76104 8.25519 2.73278C7.81237 2.53613 7.36956 2.00252 6.98209 1.74968C5.40504 0.738324 1.33682 -1.45247 0.174587 1.44082C-0.572666 3.26656 1.28163 5.0642 1.91786 5.99144C2.38867 6.63743 2.99722 7.36769 3.32933 8.09812C3.52307 8.57538 3.57826 9.08138 3.77199 9.5869C4.21497 10.8225 4.62979 12.1993 5.21115 13.3511C5.51558 13.9409 5.84754 14.5588 6.235 15.0925C6.45641 15.4014 6.84371 15.542 6.9269 16.0475C6.5396 16.6094 6.51176 17.4522 6.29019 18.1544C5.29401 21.3286 5.68164 25.2612 7.0928 27.5926C7.53545 28.2946 8.58714 29.8401 9.99846 29.2499C11.2439 28.7444 10.9671 27.1433 11.3266 25.7388C11.4099 25.4013 11.3546 25.1769 11.5205 24.9521V25.0085C11.9079 25.7948 12.2953 26.5535 12.655 27.3399C13.513 28.7162 15.0072 30.1489 16.2524 31.1041C16.9168 31.6094 17.4425 32.4803 18.2728 32.7894V32.7049H18.2173C18.0512 32.4521 17.8021 32.3399 17.5809 32.1431C17.0829 31.6377 16.5292 31.0196 16.1419 30.4578C14.9798 28.8846 13.9557 27.1431 13.0425 25.3453C12.5998 24.4747 12.2122 23.5195 11.8526 22.6488C11.6864 22.3114 11.6864 21.806 11.4098 21.6376C10.9946 22.2555 10.3859 22.7893 10.0815 23.5476C9.55596 24.7555 9.50045 26.2443 9.30672 27.7891C9.19602 27.8175 9.25121 27.7891 9.19586 27.8456C8.31054 27.6205 8.00611 26.6938 7.67383 25.9072C6.84355 23.9129 6.70517 20.7105 7.42491 18.4072C7.61864 17.8173 8.44892 15.9634 8.11681 15.4016C7.95075 14.8678 7.39707 14.5588 7.0928 14.1375C6.73317 13.6038 6.34554 12.9298 6.09662 12.3397C5.43239 10.7667 5.10028 9.02503 4.38086 7.45197C4.04875 6.72155 3.46787 5.96335 2.99722 5.28911C2.47154 4.53075 1.89034 3.99682 1.4752 3.098C1.33698 2.78913 1.14309 2.28345 1.3645 1.94633C1.41985 1.72159 1.53039 1.63747 1.75196 1.58128C2.11175 1.2721 3.13576 1.6654 3.49523 1.83396C4.51925 2.25504 5.37704 2.64867 6.235 3.23846C6.6223 3.5194 7.03745 4.05317 7.53545 4.19363H8.11665C9.00228 4.39013 9.9983 4.24982 10.8286 4.5025C12.2954 4.97992 13.6235 5.68226 14.8136 6.44077C18.4389 8.77219 21.4272 12.0869 23.4476 16.0475C23.7797 16.6934 23.9179 17.2836 24.2223 17.9576C24.8037 19.3341 25.5231 20.7386 26.104 22.087C26.6852 23.407 27.2386 24.7555 28.0688 25.8511C28.484 26.4408 30.1442 26.75 30.8915 27.059C31.445 27.3117 32.3029 27.5366 32.801 27.8454C33.7418 28.4351 34.6826 29.1096 35.5682 29.7554C36.0111 30.0926 37.3945 30.7949 37.4777 31.3566Z" fill="#00546B"/>
<path d="M9.25158 6.94604C8.78125 6.94604 8.4493 7.00255 8.11719 7.08667V7.14286H8.17254C8.39411 7.59235 8.78125 7.90138 9.05785 8.29452C9.27942 8.74385 9.47299 9.19351 9.69456 9.643C9.72208 9.61474 9.74975 9.58681 9.74975 9.58681C10.1374 9.30572 10.3309 8.85639 10.3309 8.18215C10.1649 7.98566 10.1372 7.789 9.99884 7.59235C9.83294 7.31126 9.47299 7.17095 9.25158 6.94604Z" fill="#00546B"/>
</svg>
