<svg width="36" height="36" viewBox="0 0 36 36" fill="none" xmlns="http://www.w3.org/2000/svg">
<path d="M18.3828 5.09888C16.2671 5.45124 14.4906 6.31951 13.1614 7.64838C11.588 9.22178 10.788 11.1068 10.5167 13.9009C10.3946 15.1756 10.3266 20.1941 10.4353 20.1941C10.4625 20.1941 10.7201 20.0989 11.0049 19.9768C11.6693 19.692 13.1073 19.692 13.8531 19.9634L14.4227 20.1668L14.4906 16.8983C14.5582 13.4126 14.6396 12.8837 15.2906 11.5817C15.7381 10.7138 16.8233 9.6966 17.7457 9.27589C18.8035 8.78764 20.3497 8.59803 21.5431 8.78764C24.093 9.20835 25.6118 10.5917 26.2494 13.0599C26.507 14.0502 26.5204 14.5653 26.5204 20.0175V25.8904H30.6164L30.5485 19.4751C30.5078 13.4126 30.481 13.0057 30.1961 11.9206C29.4231 8.9097 27.5514 6.72639 24.9336 5.73605C23.5368 5.20711 22.2075 5.00367 20.3765 5.0175C19.468 5.03093 18.5729 5.07162 18.3828 5.09888Z" fill="black"/>
<path d="M1.86253 15.1217C0.696417 15.7047 0.0722656 16.7492 0.0722656 18.1598C0.0722656 18.6074 0.153641 19.177 0.262277 19.4346C0.519831 20.0722 1.25221 20.8452 1.88979 21.1841C2.66286 21.591 4.12762 21.591 4.88726 21.1976L5.44306 20.9128L7.17921 22.0927L8.91536 23.2865V25.0902L7.17921 26.2836L5.42963 27.4773L4.98207 27.2059C4.33106 26.8263 3.06974 26.745 2.29667 27.0432C1.48291 27.3553 0.641895 28.1011 0.330226 28.8062C-0.0091105 29.5252 -0.0091105 30.9358 0.330226 31.6543C0.615041 32.2919 1.27947 32.997 1.87636 33.3091C2.12049 33.4312 2.70355 33.5532 3.1918 33.5939C4.33106 33.6753 5.29414 33.2957 5.98584 32.4819C6.54163 31.8309 6.90782 30.6917 6.81302 29.9048L6.74507 29.349L8.49465 28.169L10.2442 26.9891L10.8684 27.2739C11.8176 27.6808 13.2283 27.5856 14.1234 27.0432C15.0999 26.4329 15.5882 25.565 15.6423 24.3444C15.683 23.4899 15.6423 23.2999 15.3033 22.6355C14.4216 20.9534 12.4552 20.3163 10.7732 21.1569L10.2715 21.401L8.54917 20.2211L6.82645 19.0411L6.78576 18.0919C6.7589 16.9526 6.4334 16.2202 5.63307 15.5558C4.61588 14.6875 3.097 14.5113 1.86253 15.1217Z" fill="#018BFF"/>
</svg>
