<svg width="36" height="40" viewBox="0 0 36 40" fill="none" xmlns="http://www.w3.org/2000/svg">
<path d="M16.3212 0.421828C17.3016 -0.139341 18.5786 -0.141876 19.5581 0.421828C24.4861 3.20641 29.4157 5.98663 34.3428 8.7729C35.2696 9.29493 35.8895 10.3263 35.88 11.3941V28.1473C35.8869 29.2593 35.2058 30.3153 34.2281 30.8255C29.3163 33.5948 24.407 36.3674 19.496 39.1366C18.4953 39.7088 17.1927 39.6647 16.2233 39.0456C14.7508 38.192 13.2757 37.3426 11.803 36.4897C11.5021 36.3103 11.1628 36.1676 10.9503 35.8758C11.1382 35.6226 11.474 35.591 11.7469 35.4805C12.3616 35.285 12.9262 34.9713 13.4909 34.6668C13.6337 34.5691 13.808 34.6066 13.9449 34.694C15.2041 35.416 16.4522 36.159 17.7156 36.8741C17.9851 37.0297 18.2581 36.8231 18.4884 36.6946C23.3084 33.9705 28.1344 31.2566 32.9535 28.5316C33.1321 28.4457 33.2308 28.2561 33.2163 28.0605C33.2197 22.534 33.2171 17.0065 33.218 11.48C33.2384 11.2581 33.11 11.0541 32.9093 10.9632C28.0145 8.20666 23.1223 5.44588 18.2283 2.68862C18.1436 2.63032 18.0431 2.59905 17.9402 2.5989C17.8373 2.59874 17.7368 2.62973 17.6518 2.68777C12.7579 5.44588 7.86649 8.2092 2.97256 10.9656C2.77259 11.0566 2.63839 11.2573 2.66219 11.48C2.66304 17.0065 2.66219 22.534 2.66219 28.0614C2.6537 28.1568 2.67467 28.2525 2.72225 28.3357C2.76984 28.4189 2.84176 28.4855 2.92834 28.5265C4.23431 29.2671 5.54197 30.0024 6.84878 30.7405C7.58499 31.1367 8.48892 31.3722 9.30004 31.0686C10.0158 30.8119 10.5176 30.0814 10.5039 29.3214C10.5107 23.8272 10.5005 18.3321 10.509 12.8387C10.4911 12.5948 10.7225 12.3933 10.9596 12.4162C11.5871 12.412 12.2154 12.4078 12.8429 12.4179C13.1049 12.412 13.2851 12.6746 13.2527 12.9203C13.2502 18.4494 13.2595 23.9786 13.2485 29.5076C13.2502 30.9811 12.6448 32.5845 11.2818 33.3055C9.60267 34.1754 7.52726 33.9909 5.86839 33.1568C4.4323 32.44 3.06184 31.5941 1.65124 30.8262C0.67099 30.3189 -0.006779 29.2586 0.000121204 28.1474V11.3941C-0.0101587 10.3042 0.634377 9.25409 1.58998 8.73967C6.50096 5.96818 11.4111 3.19458 16.3212 0.421828Z" fill="#8CC84B"/>
<path d="M20.6054 12.0268C22.7473 11.8889 25.0402 11.9451 26.9676 13.0003C28.4599 13.8089 29.2872 15.5059 29.3136 17.1638C29.2719 17.3874 29.0381 17.5107 28.8246 17.4954C28.2032 17.4946 27.5816 17.5038 26.9602 17.4912C26.6966 17.5013 26.5434 17.2583 26.5103 17.0252C26.3317 16.232 25.8991 15.4463 25.1525 15.0637C24.0063 14.4899 22.6774 14.5187 21.4276 14.5307C20.5153 14.5791 19.5342 14.6581 18.7612 15.1947C18.1678 15.6011 17.9875 16.4215 18.1993 17.0822C18.399 17.5567 18.9467 17.7097 19.3947 17.8508C21.976 18.5259 24.7113 18.4587 27.2432 19.3472C28.2915 19.7094 29.317 20.4135 29.6758 21.511C30.1451 22.982 29.9394 24.7403 28.8928 25.9212C28.0441 26.893 26.808 27.422 25.5751 27.7092C23.9349 28.075 22.2328 28.0842 20.5672 27.9219C19.001 27.7433 17.3712 27.3318 16.1621 26.2647C15.1282 25.367 14.6232 23.9682 14.6733 22.6182C14.6853 22.3902 14.9123 22.2312 15.1307 22.2499C15.7565 22.2448 16.3823 22.2432 17.0081 22.2508C17.2581 22.2329 17.4434 22.4489 17.4562 22.6845C17.5717 23.4403 17.8557 24.2335 18.5148 24.6816C19.7867 25.5022 21.3826 25.446 22.8389 25.4689C24.0455 25.4154 25.3999 25.3992 26.3845 24.6018C26.904 24.1469 27.0579 23.3859 26.9175 22.7312C26.7654 22.1785 26.1872 21.921 25.6907 21.7525C23.1425 20.9465 20.3767 21.239 17.8532 20.3274C16.8287 19.9654 15.838 19.2809 15.4445 18.2284C14.8953 16.7388 15.1469 14.8963 16.3032 13.7552C17.4306 12.6202 19.058 12.1831 20.6054 12.0266V12.0268Z" fill="#8CC84B"/>
</svg>
