<svg width="40" height="41" viewBox="0 0 40 41" fill="none" xmlns="http://www.w3.org/2000/svg">
<path d="M39.2522 24.3729C39.0156 23.6545 38.396 23.1541 37.5946 23.034C37.2168 22.9775 36.784 23.0016 36.272 23.1074C35.3794 23.2921 34.7172 23.3624 34.2339 23.376C36.0581 20.2877 37.5413 16.7659 38.3952 13.4508C39.776 8.09025 39.0381 5.6482 38.1759 4.54361C35.8941 1.61988 32.565 0.0492228 28.5487 0.00116357C26.4062 -0.0251067 24.5253 0.399081 23.5441 0.704126C22.6306 0.542486 21.6483 0.45224 20.6177 0.435551C18.6856 0.404644 16.9786 0.826978 15.52 1.69498C14.7125 1.42115 13.4165 1.03513 11.9198 0.788809C8.39976 0.209317 5.56269 0.660857 3.48751 2.13091C0.974675 3.9108 -0.190204 7.00328 0.0252345 11.3224C0.0936571 12.6937 0.858634 16.8661 2.06312 20.823C2.75536 23.0974 3.49352 24.9861 4.25711 26.4371C5.34001 28.4947 6.49872 29.7064 7.79952 30.1415C8.52859 30.3851 9.85328 30.5557 11.2465 29.3921C11.4231 29.6066 11.6588 29.8197 11.9715 30.0176C12.3686 30.2687 12.8542 30.4739 13.3391 30.5956C15.0868 31.0336 16.7239 30.9241 18.1205 30.31C18.1292 30.5591 18.1358 30.7971 18.1414 31.0026C18.1506 31.3359 18.1598 31.6627 18.172 31.9684C18.2548 34.0351 18.395 35.6421 18.8105 36.7664C18.8333 36.8283 18.864 36.9225 18.8963 37.0225C19.1036 37.6589 19.4502 38.7242 20.332 39.5585C21.245 40.4228 22.3495 40.6878 23.361 40.6878C23.8684 40.6878 24.3524 40.6211 24.777 40.5299C26.2903 40.2046 28.009 39.7092 29.2523 37.9339C30.4278 36.2557 30.9993 33.7281 31.1027 29.7453C31.1161 29.6327 31.1284 29.5251 31.1403 29.4227L31.1649 29.2122L31.4418 29.2366L31.5132 29.2414C33.0546 29.3119 34.9393 28.9841 36.0967 28.4449C37.0113 28.0194 39.9423 26.4677 39.2522 24.3729Z" fill="black"/>
<path d="M36.6168 24.7803C32.0337 25.7284 31.7185 24.1724 31.7185 24.1724C36.5574 16.9723 38.5804 7.83285 36.8348 5.59601C32.0723 -0.505661 23.8285 2.38006 23.6909 2.45485L23.6467 2.46289C22.7411 2.27436 21.7279 2.16217 20.5889 2.14347C18.5153 2.10947 16.9422 2.68866 15.7485 3.59637C15.7485 3.59637 1.0422 -2.47887 1.72627 11.237C1.87175 14.1549 5.89697 33.3154 10.698 27.528C12.4528 25.4117 14.1484 23.6224 14.1484 23.6224C14.9904 24.1834 15.9986 24.4695 17.0554 24.3668L17.1376 24.2969C17.112 24.5596 17.1237 24.8166 17.1704 25.1209C15.9335 26.5066 16.2971 26.7498 13.8246 27.2602C11.3227 27.7773 12.7924 28.6977 13.752 28.9384C14.9154 29.23 17.6067 29.6433 19.4251 27.0905L19.3527 27.3818C19.8372 27.7711 20.1774 29.9135 20.1204 31.8558C20.0634 33.798 20.0253 35.1314 20.4071 36.173C20.7891 37.2145 21.1696 39.558 24.4199 38.8597C27.1357 38.276 28.5432 36.7636 28.7391 34.2407C28.8779 32.4472 29.1924 32.7124 29.2122 31.1088L29.4644 30.3498C29.7552 27.9185 29.5107 27.1341 31.1838 27.499L31.5906 27.5348C32.8219 27.5909 34.4339 27.3361 35.3799 26.8952C37.4169 25.9473 38.6251 24.3645 36.6164 24.7803H36.6168Z" fill="#336791"/>
<path d="M16.61 12.5418C16.197 12.4841 15.823 12.5374 15.6337 12.6812C15.5274 12.762 15.4944 12.8556 15.4855 12.9201C15.4618 13.0908 15.581 13.2797 15.6544 13.377C15.8618 13.6527 16.1648 13.8421 16.4647 13.8839C16.5081 13.89 16.5514 13.8928 16.5944 13.8928C17.0945 13.8928 17.5493 13.5023 17.5893 13.2141C17.6394 12.8531 17.1169 12.6125 16.61 12.5419V12.5418ZM30.2921 12.5532C30.2526 12.2703 29.7505 12.1896 29.2741 12.256C28.7982 12.3225 28.3368 12.5379 28.3753 12.8215C28.4061 13.042 28.8033 13.4184 29.2733 13.4184C29.313 13.4184 29.3531 13.4158 29.3935 13.4101C29.7072 13.3665 29.9375 13.1667 30.0469 13.0516C30.2133 12.876 30.3098 12.6804 30.2921 12.5532Z" fill="white"/>
<path d="M38.1426 24.6727C37.9678 24.1428 37.4053 23.9724 36.4708 24.1659C33.6961 24.7401 32.7025 24.3423 32.3762 24.1014C34.5329 20.8068 36.3072 16.8242 37.2643 13.1085C37.7177 11.3484 37.9681 9.71377 37.9886 8.3814C38.0113 6.91907 37.7628 5.84445 37.2506 5.188C35.1853 2.54165 32.154 1.12213 28.4848 1.08318C25.9622 1.05475 23.8309 1.70208 23.4178 1.88412C22.5477 1.66716 21.5992 1.53395 20.5665 1.51695C18.6729 1.4862 17.036 1.94083 15.6808 2.86756C15.0921 2.64782 13.5708 2.12411 11.7102 1.82354C8.49376 1.30432 5.93777 1.69776 4.11378 2.9935C1.93735 4.53974 0.932584 7.30369 1.12722 11.2084C1.19271 12.5221 1.9392 16.5634 3.11718 20.4336C4.66779 25.5276 6.35339 28.4113 8.12684 29.0046C8.33442 29.0739 8.57374 29.1225 8.83773 29.1225C9.48466 29.1225 10.2778 28.8301 11.1031 27.8352C12.1096 26.6244 13.1508 25.443 14.2254 24.2924C14.9226 24.6676 15.6885 24.8772 16.4718 24.8982C16.4733 24.9187 16.4753 24.9393 16.4772 24.9597C16.3424 25.1209 16.2103 25.2845 16.0811 25.4503C15.5384 26.1412 15.4254 26.2851 13.6783 26.6458C13.1813 26.7487 11.8614 27.0215 11.842 27.9493C11.8211 28.963 13.4023 29.3887 13.5825 29.4338C14.2103 29.5915 14.8152 29.6692 15.392 29.6692C16.7948 29.6692 18.0293 29.2068 19.0159 28.3123C18.9856 31.9261 19.1358 35.4872 19.5685 36.5721C19.923 37.4604 20.7887 39.6311 23.5235 39.6309C23.9248 39.6309 24.3665 39.5841 24.8524 39.4796C27.7065 38.8661 28.946 37.6011 29.4254 34.8123C29.682 33.3219 30.1223 29.7628 30.3294 27.8538C30.7665 27.9905 31.3291 28.0531 31.9373 28.053C33.2059 28.053 34.6698 27.7827 35.5878 27.3554C36.6191 26.8751 38.48 25.6967 38.1426 24.6727ZM31.3456 11.7724C31.3362 12.336 31.2588 12.8477 31.1768 13.3817C31.0885 13.9561 30.9973 14.55 30.9743 15.2709C30.9517 15.9724 31.0391 16.7018 31.1235 17.4073C31.2943 18.8321 31.4695 20.2989 30.7913 21.7462C30.6786 21.546 30.5782 21.3391 30.4908 21.1267C30.4065 20.9218 30.2234 20.5926 29.9699 20.1371C28.9838 18.3637 26.6745 14.2108 27.8566 12.5162C28.2088 12.0118 29.1024 11.4932 31.3456 11.7724ZM28.6265 2.2244C31.9142 2.29718 34.5149 3.5305 36.3562 5.88989C37.7684 7.69961 36.2133 15.9341 31.7114 23.0381C31.6662 22.9804 31.6206 22.9228 31.5749 22.8655L31.5179 22.7941C32.6812 20.8675 32.4538 18.9614 32.2513 17.2714C32.168 16.5779 32.0894 15.9228 32.1095 15.3075C32.1301 14.6554 32.2161 14.096 32.2993 13.5551C32.4015 12.8886 32.5055 12.1989 32.4769 11.386C32.4983 11.3007 32.5069 11.1999 32.4957 11.0803C32.4225 10.3007 31.5348 7.96741 29.7256 5.85558C28.736 4.70046 27.2928 3.4078 25.3222 2.53593C26.1698 2.35977 27.3288 2.1955 28.6265 2.2244ZM10.2298 27.1071C9.32054 28.2033 8.69271 27.9931 8.48621 27.9242C7.14087 27.4742 5.57978 24.6228 4.20347 20.1012C3.01254 16.1888 2.3166 12.2546 2.26143 11.1514C2.0876 7.66236 2.93102 5.23081 4.76842 3.92409C7.75868 1.79774 12.6749 3.07046 14.6504 3.71594C14.6221 3.74406 14.5925 3.77033 14.5644 3.79892C11.3227 7.08179 11.3996 12.6907 11.4076 13.0336C11.4073 13.1658 11.4184 13.3531 11.4335 13.6107C11.4893 14.5542 11.5931 16.3099 11.3157 18.2983C11.0581 20.146 11.6261 21.9545 12.8739 23.2602C13.002 23.3939 13.1366 23.5212 13.2772 23.6415C12.7218 24.238 11.5147 25.5571 10.2298 27.1071ZM13.6939 22.4722C12.6882 21.4198 12.2314 19.9561 12.4406 18.4559C12.7334 16.3555 12.6253 14.5262 12.5672 13.5434C12.5591 13.4058 12.5518 13.2853 12.5477 13.1903C13.0212 12.7692 15.2158 11.5901 16.7809 11.9497C17.4951 12.1136 17.9302 12.6013 18.1112 13.4401C19.0475 17.7829 18.2351 19.593 17.5823 21.0476C17.4477 21.3472 17.3206 21.6305 17.2121 21.9235L17.128 22.15C16.915 22.7227 16.7168 23.2552 16.594 23.7608C15.5248 23.7577 14.4848 23.2997 13.6939 22.472V22.4722ZM13.858 28.3289C13.5458 28.2508 13.265 28.1149 13.1003 28.0023C13.2379 27.9374 13.4828 27.849 13.9075 27.7612C15.9628 27.337 16.2802 27.0375 16.9734 26.155C17.1323 25.9526 17.3124 25.7232 17.5619 25.4438L17.5622 25.4435C17.9338 25.0263 18.1038 25.0971 18.412 25.2253C18.6618 25.3289 18.9051 25.6429 19.0037 25.9884C19.0504 26.1516 19.1028 26.4613 18.9313 26.7023C17.4833 28.7354 15.3733 28.7092 13.858 28.3289ZM24.6144 38.3661C22.1 38.9063 21.2098 37.6198 20.6231 36.1492C20.2444 35.1997 20.0583 30.9183 20.1904 26.1901C20.1921 26.1272 20.1831 26.0664 20.1659 26.0093C20.1504 25.8964 20.1269 25.7847 20.0956 25.6752C19.8993 24.9872 19.4208 24.4117 18.8467 24.1731C18.6186 24.0784 18.2001 23.9046 17.6971 24.0336C17.8043 23.5904 17.9904 23.0899 18.1921 22.5479L18.2767 22.32C18.3719 22.063 18.4915 21.7967 18.6179 21.5149C19.301 19.993 20.2366 17.9086 19.2212 13.1995C18.8409 11.4357 17.5707 10.5744 15.6453 10.7745C14.4911 10.8942 13.435 11.3612 12.9083 11.629C12.795 11.6865 12.6914 11.7421 12.5947 11.7962C12.7417 10.0191 13.2971 6.69793 15.3747 4.59661C16.6829 3.27382 18.4251 2.62046 20.5477 2.6557C24.7301 2.72431 27.4122 4.87662 28.9258 6.67027C30.2302 8.21574 30.9364 9.77265 31.2183 10.6124C29.0986 10.3962 27.6569 10.8157 26.9261 11.8635C25.3362 14.1425 27.7959 18.5658 28.9781 20.6917C29.1949 21.0813 29.382 21.418 29.4408 21.5611C29.8258 22.4966 30.3242 23.1212 30.688 23.5771C30.7996 23.7168 30.9078 23.8523 30.9901 23.9707C30.3481 24.1563 29.1949 24.5851 29.3 26.7286C29.2152 27.8042 28.6125 32.8397 28.3063 34.6188C27.9021 36.9693 27.0396 37.8447 24.6144 38.3662V38.3661ZM35.1096 26.3225C34.4531 26.628 33.3545 26.8572 32.3109 26.9065C31.1582 26.9606 30.5714 26.777 30.4333 26.664C30.3686 25.3283 30.8643 25.1887 31.389 25.041C31.4715 25.0178 31.5519 24.9951 31.6296 24.9679C31.6778 25.0073 31.7307 25.0464 31.7886 25.0847C32.7151 25.6979 34.3676 25.764 36.7006 25.2811L36.7262 25.276C36.4115 25.571 35.873 25.9669 35.1096 26.3225Z" fill="white"/>
</svg>
