<svg width="40" height="40" viewBox="0 0 40 40" fill="none" xmlns="http://www.w3.org/2000/svg">
<g clip-path="url(#clip0_82_907)">
<path d="M37.2623 15.9587H24.7212C24.5721 15.9587 24.4245 15.9293 24.2868 15.8722C24.1491 15.8151 24.024 15.7314 23.9186 15.626C23.8132 15.5206 23.7296 15.3954 23.6726 15.2577C23.6156 15.1199 23.5863 14.9723 23.5863 14.8232V1.75214C23.587 1.52179 23.542 1.2936 23.4541 1.08068C23.3662 0.867765 23.2371 0.674325 23.0742 0.51149C22.9113 0.348654 22.7178 0.219637 22.5048 0.131858C22.2918 0.0440795 22.0636 -0.000728279 21.8333 1.22843e-05H17.3538C17.1234 -0.000851659 16.8951 0.0438627 16.682 0.131582C16.4689 0.219302 16.2752 0.348295 16.1122 0.511138C15.9491 0.673982 15.8199 0.867461 15.7319 1.08044C15.6439 1.29342 15.5989 1.5217 15.5995 1.75214V14.736C15.6 14.8967 15.5687 15.0559 15.5075 15.2045C15.4463 15.353 15.3563 15.4881 15.2428 15.6018C15.1292 15.7155 14.9943 15.8056 14.8458 15.867C14.6973 15.9285 14.5381 15.9599 14.3774 15.9596L10.2658 15.9743C9.58741 15.9743 9.02748 15.4287 9.04182 14.7503L9.07113 1.7537C9.07191 1.52315 9.02708 1.29473 8.9392 1.08159C8.85133 0.868453 8.72216 0.674803 8.55912 0.511799C8.39609 0.348794 8.20242 0.219655 7.98926 0.131819C7.7761 0.0439842 7.54767 -0.000811536 7.31713 1.22843e-05H2.83799C2.60749 -0.000645932 2.37914 0.0442629 2.16606 0.132157C1.95297 0.220051 1.75937 0.349196 1.59637 0.512168C1.43337 0.67514 1.30419 0.868723 1.21625 1.08179C1.12832 1.29485 1.08337 1.5232 1.08399 1.7537V38.3441C1.08399 39.1974 1.77611 39.9061 2.64594 39.9061H37.2623C37.6764 39.9056 38.0734 39.7408 38.3661 39.4479C38.6588 39.155 38.8234 38.7579 38.8236 38.3438V17.5197C38.8249 17.3143 38.7854 17.1107 38.7074 16.9207C38.6294 16.7307 38.5145 16.5581 38.3692 16.4128C38.224 16.2676 38.0513 16.1527 37.8613 16.0747C37.6713 15.9968 37.4677 15.9573 37.2623 15.9587ZM31.3833 29.6932C31.3816 30.2322 31.1667 30.7486 30.7856 31.1297C30.4044 31.5107 29.888 31.7256 29.349 31.7272H25.8124C25.2735 31.7254 24.7572 31.5105 24.3762 31.1295C23.9952 30.7484 23.7804 30.2321 23.7787 29.6932V26.1572C23.7804 25.6183 23.9952 25.102 24.3762 24.721C24.7572 24.3399 25.2735 24.125 25.8124 24.1232H29.3487C29.8876 24.1249 30.404 24.3396 30.7851 24.7206C31.1663 25.1017 31.3812 25.618 31.383 26.1569L31.3833 29.6932Z" fill="#FF6600"/>
</g>
<defs>
<clipPath id="clip0_82_907">
<rect width="39.9061" height="39.9061" fill="white"/>
</clipPath>
</defs>
</svg>
