<svg width="39" height="39" viewBox="0 0 39 39" fill="none" xmlns="http://www.w3.org/2000/svg">
<path d="M19.4226 22.9381C21.3215 22.9381 22.8609 21.3987 22.8609 19.4998C22.8609 17.6009 21.3215 16.0615 19.4226 16.0615C17.5237 16.0615 15.9844 17.6009 15.9844 19.4998C15.9844 21.3987 17.5237 22.9381 19.4226 22.9381Z" fill="#61DAFB"/>
<path d="M19.4239 26.5441C29.6131 26.5441 37.8731 23.3903 37.8731 19.4998C37.8731 15.6094 29.6131 12.4556 19.4239 12.4556C9.23462 12.4556 0.974609 15.6094 0.974609 19.4998C0.974609 23.3903 9.23462 26.5441 19.4239 26.5441Z" stroke="#61DAFB" stroke-width="1.94996"/>
<path d="M13.3224 23.0218C18.4171 31.8459 25.2784 37.4224 28.6476 35.4772C32.0168 33.5319 30.6181 24.8016 25.5234 15.9775C20.4288 7.15338 13.5675 1.57691 10.1983 3.52213C6.82911 5.46735 8.22782 14.1976 13.3224 23.0218Z" stroke="#61DAFB" stroke-width="1.94996"/>
<path d="M13.3224 15.9774C8.2278 24.8016 6.82909 33.5319 10.1983 35.4771C13.5675 37.4223 20.4288 31.8458 25.5234 23.0217C30.618 14.1976 32.0168 5.46728 28.6475 3.52206C25.2783 1.57684 18.417 7.15331 13.3224 15.9774Z" stroke="#61DAFB" stroke-width="1.94996"/>
</svg>
