<svg width="41" height="35" viewBox="0 0 41 35" fill="none" xmlns="http://www.w3.org/2000/svg">
<path d="M39.0937 26.7585C36.9223 27.8903 25.674 32.5152 23.2793 33.7636C20.8846 35.0122 19.5543 35.0002 17.6625 34.0958C15.7708 33.1915 3.80066 28.3563 1.64436 27.3256C0.566769 26.8106 0 26.3758 0 25.9651V21.8524C0 21.8524 15.5838 18.4599 18.0996 17.5573C20.6152 16.6547 21.4881 16.6221 23.629 17.4063C25.7702 18.1909 38.5719 20.5005 40.6878 21.2755L40.6869 25.33C40.6872 25.7365 40.1989 26.1825 39.0937 26.7585Z" fill="#912626"/>
<path d="M39.0929 22.6703C36.9216 23.8016 25.6737 28.4267 23.279 29.675C20.8844 30.9237 19.5541 30.9115 17.6625 30.0071C15.7706 29.1034 3.80094 24.2675 1.6448 23.2374C-0.511335 22.2067 -0.556473 21.4974 1.56152 20.668C3.67951 19.8384 15.5836 15.168 18.0997 14.2654C20.6153 13.3631 21.4881 13.3302 23.6289 14.1148C25.77 14.8989 36.9509 19.3493 39.0665 20.1241C41.1829 20.8999 41.2641 21.5387 39.0929 22.6703Z" fill="#C6302B"/>
<path d="M39.0937 20.1041C36.9223 21.2361 25.674 25.8608 23.2793 27.1097C20.8846 28.3579 19.5543 28.3458 17.6625 27.4414C15.7707 26.5376 3.80066 21.7019 1.64436 20.6712C0.566769 20.1562 0 19.722 0 19.3112V15.198C0 15.198 15.5838 11.8057 18.0996 10.9031C20.6152 10.0005 21.4881 9.96775 23.629 10.7521C25.7703 11.5365 38.5721 13.8457 40.6878 14.6208L40.6869 18.6757C40.6872 19.0821 40.1989 19.5281 39.0937 20.1041Z" fill="#912626"/>
<path d="M39.0929 16.0157C36.9216 17.1473 25.6737 21.7721 23.279 23.0208C20.8844 24.2691 19.5541 24.2569 17.6625 23.3525C15.7706 22.4488 3.80094 17.613 1.6448 16.5828C-0.511335 15.5524 -0.556473 14.8429 1.56152 14.0133C3.67951 13.1841 15.5837 8.5134 18.0997 7.61096C20.6153 6.70852 21.4881 6.67578 23.6289 7.46013C25.77 8.24432 36.9509 12.6944 39.0665 13.4695C41.1829 14.2451 41.2641 14.8841 39.0929 16.0157Z" fill="#C6302B"/>
<path d="M39.0937 13.2029C36.9223 14.3345 25.674 18.9596 23.2793 20.2085C20.8846 21.4568 19.5543 21.4446 17.6625 20.5402C15.7707 19.6364 3.80066 14.8006 1.64436 13.7703C0.566769 13.2549 0 12.8205 0 12.4101V8.29685C0 8.29685 15.5838 4.90466 18.0996 4.00221C20.6152 3.09945 21.4881 3.06703 23.629 3.85122C25.7703 4.63558 38.5721 6.94477 40.6878 7.71991L40.6869 11.7747C40.6872 12.1808 40.1989 12.6268 39.0937 13.2029Z" fill="#912626"/>
<path d="M39.0928 9.11439C36.9215 10.246 25.6736 14.8711 23.2789 16.1194C20.8843 17.3677 19.554 17.3554 17.6624 16.4516C15.7707 15.5472 3.80086 10.7117 1.64488 9.68132C-0.511415 8.65109 -0.556394 7.94144 1.56144 7.11195C3.67943 6.28261 15.5836 1.61257 18.0996 0.709809C20.6153 -0.192794 21.488 -0.225217 23.6289 0.559137C25.7699 1.34349 36.9508 5.79357 39.0664 6.5687C41.1828 7.34368 41.264 7.98276 39.0928 9.11439Z" fill="#C6302B"/>
<path d="M25.3152 5.11335L21.817 5.47652L21.0339 7.36087L19.7691 5.25814L15.7297 4.89513L18.7438 3.80816L17.8394 2.13965L20.6614 3.2433L23.3217 2.37233L22.6026 4.09759L25.3152 5.11335ZM20.8251 14.2551L14.2964 11.5473L23.6515 10.1113L20.8251 14.2551ZM11.7736 6.16074C14.5351 6.16074 16.7738 7.02854 16.7738 8.09882C16.7738 9.16941 14.5351 10.037 11.7736 10.037C9.01207 10.037 6.77344 9.16925 6.77344 8.09882C6.77344 7.02854 9.01207 6.16074 11.7736 6.16074Z" fill="white"/>
<path d="M29.4492 5.62858L34.986 7.81651L29.454 10.0024L29.4492 5.62842" fill="#621B1C"/>
<path d="M23.3242 8.05167L29.4496 5.62866L29.4544 10.0025L28.8538 10.2374L23.3242 8.05167Z" fill="#9A2928"/>
</svg>
