<svg width="39" height="38" viewBox="0 0 39 38" fill="none" xmlns="http://www.w3.org/2000/svg">
<path d="M27.0224 25.8573C28.4616 25.7083 29.5534 24.4676 29.5038 22.9787C29.4542 21.4898 28.2134 20.2987 26.7246 20.2987H26.6254C25.0868 20.3483 23.8958 21.6387 23.9454 23.1772C23.9951 23.9216 24.2928 24.5668 24.7394 25.0135C23.0521 28.3388 20.4714 30.7706 16.6005 32.8054C13.9701 34.1951 11.2406 34.6914 8.51114 34.3441C6.27782 34.0462 4.54083 33.0537 3.44885 31.4158C1.86085 28.9839 1.71201 26.3535 3.052 23.7231C3.99499 21.8372 5.48367 20.4475 6.42666 19.7527C6.22816 19.1075 5.93033 18.0157 5.7815 17.2217C-1.41464 22.4328 -0.67015 29.4803 1.51351 32.8054C3.15117 35.287 6.47632 36.8255 10.1488 36.8255C11.1413 36.8255 12.1338 36.7262 13.1265 36.4782C19.4789 35.2374 24.2929 31.4654 27.0224 25.8573ZM35.757 19.7032C31.9852 15.286 26.4269 12.8542 20.0744 12.8542H19.2804C18.8338 11.9609 17.8908 11.3652 16.8486 11.3652H16.7493C15.211 11.4149 14.02 12.7052 14.0695 14.2439C14.1191 15.7327 15.3598 16.9239 16.8486 16.9239H16.9478C18.0396 16.8742 18.9826 16.1794 19.3796 15.2364H20.2729C24.0448 15.2364 27.6179 16.3282 30.8439 18.4624C33.3252 20.1002 35.1119 22.2343 36.1044 24.815C36.9481 26.8995 36.8984 28.9343 36.0051 30.6714C34.6156 33.3017 32.2831 34.7411 29.2061 34.7411C27.2209 34.7411 25.3351 34.1454 24.3424 33.6987C23.7966 34.1951 22.8039 34.9891 22.1091 35.4855C24.2433 36.478 26.4269 37.024 28.5112 37.024C33.2756 37.024 36.7992 34.3936 38.1392 31.7632C39.5784 28.8846 39.479 23.9216 35.757 19.7032ZM10.5458 26.7008C10.5955 28.1898 11.8361 29.3808 13.325 29.3808H13.4243C14.9628 29.3313 16.1538 28.0408 16.1041 26.5023C16.0546 25.0133 14.8138 23.8223 13.325 23.8223H13.2258C13.1265 23.8223 12.9775 23.8223 12.8785 23.8718C10.8436 20.497 9.99997 16.8245 10.2978 12.8541C10.4961 9.87626 11.4888 7.29546 13.2258 5.16131C14.665 3.32499 17.4441 2.43167 19.3301 2.38216C24.5906 2.28283 26.8238 8.83395 26.9728 11.4644C27.6179 11.6133 28.7097 11.9607 29.4542 12.2089C28.8586 4.16896 23.8958 0 19.1316 0C14.665 0 10.5458 3.22597 8.90799 7.99044C6.62516 14.3431 8.11399 20.4475 10.8931 25.2616C10.6451 25.609 10.4961 26.155 10.5458 26.701V26.7008Z" fill="#764ABC"/>
</svg>
