<svg width="39" height="30" viewBox="0 0 39 30" fill="none" xmlns="http://www.w3.org/2000/svg">
<path d="M33.5814 16.813C32.2209 16.8202 31.0384 17.1478 30.0482 17.6322C29.6849 16.9128 29.3217 16.2717 29.2575 15.8015C29.1863 15.253 29.1008 14.9182 29.1863 14.2629C29.2718 13.6075 29.6565 12.6744 29.6493 12.6031C29.6422 12.5319 29.5639 12.1971 28.7803 12.19C27.9967 12.1828 27.32 12.3396 27.2416 12.5461C27.1633 12.7527 27.0137 13.2229 26.914 13.7072C26.7786 14.4196 25.3468 16.9626 24.5276 18.2947C24.2641 17.7747 24.0361 17.3188 23.9863 16.9555C23.915 16.407 23.8295 16.0722 23.915 15.4169C24.0005 14.7615 24.3852 13.8283 24.378 13.7571C24.3709 13.6859 24.2926 13.3511 23.509 13.344C22.7254 13.3368 22.0487 13.4935 21.9703 13.7001C21.892 13.9067 21.8065 14.3911 21.6427 14.8612C21.4788 15.3314 19.5769 19.5769 19.0783 20.6739C18.8218 21.2366 18.601 21.6854 18.4443 21.9917C18.4443 21.9917 18.4371 22.0131 18.4158 22.0487C18.2804 22.3123 18.2021 22.4547 18.2021 22.4547C18.2021 22.4547 18.2021 22.4547 18.2021 22.4619C18.0952 22.6542 17.9813 22.8323 17.9243 22.8323C17.8815 22.8323 17.8032 22.3194 17.9385 21.6213C18.2234 20.1468 18.9002 17.853 18.893 17.7747C18.893 17.7319 19.0213 17.333 18.4514 17.1265C17.8958 16.9199 17.6963 17.2618 17.6465 17.2618C17.5966 17.2618 17.561 17.3829 17.561 17.3829C17.561 17.3829 18.1807 14.8042 16.3785 14.8042C15.253 14.8042 13.7001 16.0366 12.9308 17.1478C12.4464 17.4114 11.4135 17.9741 10.3094 18.5796C9.8891 18.8147 9.45458 19.0498 9.04855 19.2706C9.02005 19.2421 8.99156 19.2065 8.96307 19.178C6.78332 16.8486 2.75149 15.2032 2.92245 12.076C2.98656 10.9363 3.37834 7.94444 10.6656 4.31152C16.6634 1.35532 21.4361 2.17451 22.2624 3.99097C23.4449 6.58387 19.7051 11.3993 13.5078 12.0974C11.1428 12.3609 9.90335 11.4491 9.58992 11.1072C9.26225 10.751 9.21239 10.7297 9.09129 10.8009C8.89183 10.9078 9.02005 11.2283 9.09129 11.4135C9.2765 11.8979 10.0387 12.7527 11.328 13.173C12.4678 13.5434 15.2388 13.75 18.5939 12.4535C22.3479 11.0004 25.2827 6.96141 24.4208 3.57781C23.5589 0.144346 17.8602 -0.98827 12.4678 0.927917C9.26225 2.06766 5.78604 3.86275 3.28574 6.19921C0.315296 8.97733 -0.154846 11.3921 0.0374846 12.4037C0.728451 15.9938 5.67919 18.3303 7.65949 20.0613C7.55976 20.1183 7.46716 20.1681 7.3888 20.2109C6.39865 20.7024 2.62327 22.6756 1.68298 24.7627C0.614478 27.1277 1.85394 28.823 2.67313 29.051C5.21617 29.7562 7.83045 28.4882 9.23376 26.394C10.6371 24.2997 10.4661 21.5786 9.81787 20.332C9.81075 20.3177 9.80362 20.3035 9.78938 20.2892C10.0458 20.1396 10.3094 19.9829 10.5658 19.8333C11.0716 19.5342 11.5702 19.2563 11.9976 19.0284C11.7554 19.6909 11.5773 20.4816 11.4919 21.6213C11.385 22.9605 11.9335 24.6986 12.653 25.3824C12.9735 25.6816 13.3511 25.6888 13.5933 25.6888C14.4338 25.6888 14.8114 24.9907 15.2316 24.1644C15.7445 23.1528 16.2075 21.9775 16.2075 21.9775C16.2075 21.9775 15.6305 25.1545 17.1977 25.1545C17.7676 25.1545 18.3445 24.4137 18.601 24.0361C18.601 24.0433 18.601 24.0433 18.601 24.0433C18.601 24.0433 18.6152 24.0219 18.6437 23.972C18.7007 23.8794 18.7363 23.8224 18.7363 23.8224C18.7363 23.8224 18.7363 23.8153 18.7363 23.8082C18.9643 23.4093 19.4772 22.5046 20.2394 21.0016C21.2224 19.064 22.1698 16.6421 22.1698 16.6421C22.1698 16.6421 22.2553 17.2333 22.5473 18.2163C22.7183 18.7933 23.0745 19.4273 23.3594 20.0399C23.1314 20.3605 22.989 20.5386 22.989 20.5386C22.989 20.5386 22.989 20.5386 22.9961 20.5457C22.8109 20.7879 22.6114 21.0514 22.3906 21.3079C21.6142 22.2339 20.6881 23.2953 20.5599 23.6016C20.4103 23.9649 20.4459 24.2285 20.7309 24.4422C20.9375 24.5989 21.3079 24.6202 21.6854 24.5989C22.3835 24.549 22.875 24.3781 23.1172 24.2712C23.4947 24.1359 23.9364 23.9293 24.3495 23.623C25.1117 23.0602 25.5748 22.2553 25.532 21.1939C25.5107 20.6098 25.3183 20.0257 25.0833 19.4772C25.1545 19.3774 25.2186 19.2777 25.2898 19.178C26.4937 17.4185 27.4268 15.4881 27.4268 15.4881C27.4268 15.4881 27.5123 16.0793 27.8044 17.0624C27.9468 17.561 28.2389 18.1024 28.4953 18.6295C27.3627 19.5484 26.6646 20.6169 26.4153 21.315C25.9666 22.6115 26.3156 23.1956 26.9781 23.3309C27.2773 23.395 27.7047 23.2526 28.0181 23.1172C28.417 22.989 28.8871 22.7682 29.3359 22.4405C30.0981 21.8777 30.8318 21.0942 30.7891 20.0328C30.7677 19.5484 30.6395 19.0711 30.4614 18.6081C31.4231 18.2092 32.6625 17.9884 34.2439 18.1736C37.6346 18.5725 38.3042 20.6881 38.176 21.5786C38.0478 22.469 37.3355 22.9534 37.1004 23.103C36.8653 23.2526 36.787 23.3024 36.8083 23.4093C36.8368 23.566 36.9508 23.5589 37.1502 23.5304C37.4281 23.4805 38.9311 22.8109 38.9952 21.1725C39.1021 19.0783 37.1075 16.7917 33.5814 16.813ZM7.42442 25.6318C6.29893 26.857 4.73179 27.32 4.05507 26.9282C3.32848 26.5079 3.61342 24.6986 4.99535 23.4021C5.83591 22.6115 6.91866 21.8777 7.63812 21.429C7.80196 21.3292 8.04415 21.1868 8.33621 21.0087C8.38608 20.9802 8.41457 20.966 8.41457 20.966C8.47155 20.9303 8.52854 20.8947 8.58553 20.8591C9.09129 22.7112 8.6069 24.3424 7.42442 25.6318ZM15.6163 20.0613C15.2245 21.0158 14.4053 23.4591 13.9067 23.3238C13.4793 23.2098 13.2157 21.3577 13.8212 19.527C14.1275 18.6081 14.7757 17.5111 15.1533 17.0837C15.7659 16.3999 16.4426 16.1719 16.6064 16.4497C16.813 16.813 15.8585 19.4629 15.6163 20.0613ZM22.3764 23.2953C22.2125 23.3808 22.0558 23.4378 21.9846 23.395C21.9347 23.3665 22.0558 23.2526 22.0558 23.2526C22.0558 23.2526 22.9035 22.3408 23.2383 21.9276C23.4306 21.6854 23.6586 21.4005 23.9008 21.0799C23.9008 21.1084 23.9008 21.144 23.9008 21.1725C23.9008 22.2624 22.8465 22.9961 22.3764 23.2953ZM27.5907 22.1057C27.4696 22.0202 27.491 21.7353 27.897 20.8449C28.0537 20.4958 28.4241 19.9117 29.0581 19.349C29.1293 19.5769 29.1792 19.7977 29.1721 20.0043C29.1649 21.3791 28.1819 21.892 27.5907 22.1057Z" fill="#CD6799"/>
</svg>
