<svg width="40" height="40" viewBox="0 0 40 40" fill="none" xmlns="http://www.w3.org/2000/svg">
<path d="M19.864 0.00139168C18.1932 0.00763063 16.5299 0.216012 14.9115 0.631526C7.12531 2.5681 0.945011 9.61936 0.152664 17.6177C-0.829346 25.183 2.99887 33.0666 9.54228 36.9722C15.9709 40.995 24.6717 40.8341 30.9631 36.6028C36.6181 32.9306 40.1331 26.2424 39.926 19.4894C39.8299 12.81 36.079 6.31646 30.3392 2.88503C27.2135 0.954703 23.5362 -0.0135818 19.864 0.000143891V0.00139168ZM19.7529 2.8214C27.9796 2.80767 36.0391 9.17015 36.8639 17.6713C38.4374 27.0884 30.6187 36.6615 21.0781 36.941C12.0054 37.8444 3.23096 30.1492 2.97142 21.0379C2.29637 13.6622 7.164 6.33767 14.1167 3.89949C15.9098 3.18575 17.8214 2.8214 19.7517 2.82764L19.7529 2.8214ZM28.2279 8.19064C23.7559 11.6595 19.4734 15.3579 15.0999 18.9329C17.1014 18.9578 19.1166 18.9578 21.1243 18.9441C23.4701 15.3442 25.8821 11.7918 28.2279 8.19064ZM18.8046 20.9218C16.4588 24.5292 14.0418 28.0891 11.6935 31.6965C16.1793 28.2326 20.4417 24.5092 24.8414 20.9543C22.8263 20.9293 20.8123 20.9231 18.8034 20.9231L18.8046 20.9218Z" fill="black"/>
</svg>
