<svg width="39" height="24" viewBox="0 0 39 24" fill="none" xmlns="http://www.w3.org/2000/svg">
<path d="M19.4996 0C14.2996 0 11.0497 2.5993 9.74958 7.79741C11.6998 5.19811 13.9748 4.22374 16.5746 4.87332C18.0581 5.24395 19.1183 6.32024 20.2921 7.51114C22.2038 9.4511 24.4164 11.6964 29.2497 11.6964C34.4493 11.6964 37.6996 9.09705 38.9993 3.89846C37.0496 6.49776 34.7746 7.47261 32.1743 6.82303C30.6913 6.4524 29.6311 5.37611 28.4572 4.18521C26.5456 2.24525 24.3325 0 19.4996 0ZM9.74958 11.6964C4.55 11.6964 1.29965 14.2956 0 19.4942C1.94972 16.8949 4.22472 15.9201 6.825 16.5702C8.30801 16.9413 9.36822 18.0171 10.542 19.2075C12.4537 21.1475 14.6668 23.3932 19.4996 23.3932C24.6997 23.3932 27.9496 20.7939 29.2497 15.5953C27.2995 18.1946 25.0245 19.1695 22.4247 18.5194C20.9412 18.1492 19.881 17.0725 18.7072 15.882C16.7955 13.9421 14.5829 11.6964 9.74958 11.6964Z" fill="#06B6D4"/>
</svg>
