<svg width="39" height="39" viewBox="0 0 39 39" fill="none" xmlns="http://www.w3.org/2000/svg">
<path d="M0 0H38.9993V38.9993H0V0Z" fill="#017ACB"/>
<path d="M18.7271 14.4418H20.5978V17.6714H15.5401V32.0402L15.406 32.0767C15.2232 32.1255 12.8162 32.1255 12.2983 32.0706L11.8839 32.0341V17.6714H6.82617V14.4418L8.4288 14.4235C9.30629 14.4113 11.5609 14.4113 13.4378 14.4235C15.3146 14.4357 17.6911 14.4418 18.7271 14.4418ZM33.0045 30.5168C32.2611 31.3028 31.4628 31.7416 30.1344 32.1011C29.5555 32.2595 29.458 32.2656 28.1539 32.2596C26.8499 32.2535 26.7463 32.2535 26.1126 32.0889C24.4734 31.6685 23.1511 30.8458 22.2492 29.6819C21.9933 29.3529 21.5728 28.6704 21.5728 28.5851C21.5728 28.5607 21.6337 28.5059 21.713 28.4693C21.7922 28.4327 21.9567 28.3292 22.0908 28.2499C22.2248 28.1707 22.4686 28.0245 22.6331 27.9392C22.7976 27.8538 23.2729 27.5735 23.6873 27.3237C24.1017 27.0739 24.4795 26.8728 24.5221 26.8728C24.5648 26.8728 24.644 26.9581 24.7049 27.0617C25.0706 27.6771 25.9237 28.4632 26.5269 28.7313C26.8986 28.8898 27.7213 29.0665 28.1174 29.0665C28.483 29.0665 29.1533 28.908 29.5128 28.7435C29.8967 28.5668 30.0917 28.3901 30.3233 28.0367C30.4817 27.7868 30.5 27.7198 30.4939 27.2445C30.4939 26.8057 30.4695 26.6839 30.3477 26.4828C30.0064 25.9222 29.5433 25.6297 27.6665 24.8009C25.7287 23.9417 24.8573 23.4299 24.1504 22.7413C23.6264 22.2294 23.5228 22.0893 23.1937 21.4494C22.7672 20.6268 22.7123 20.3587 22.7062 19.1339C22.7001 18.2747 22.7184 17.9943 22.8098 17.7018C22.9378 17.2631 23.3521 16.4161 23.541 16.2028C23.931 15.7458 24.0712 15.6056 24.3454 15.3802C25.1741 14.6977 26.466 14.2468 27.703 14.2041C27.8432 14.2041 28.3063 14.2285 28.7389 14.2589C29.982 14.3625 30.8291 14.6672 31.6456 15.3192C32.2611 15.8067 33.1934 16.9523 33.102 17.1047C33.041 17.1961 30.6097 18.817 30.4512 18.8657C30.3538 18.8962 30.2867 18.8596 30.1527 18.7012C29.3239 17.7079 28.9888 17.4947 28.1844 17.4459C27.6116 17.4094 27.3069 17.4764 26.923 17.7323C26.5208 18.0004 26.3258 18.4087 26.3258 18.9754C26.3319 19.8042 26.6488 20.1941 27.8188 20.773C28.5744 21.1448 29.2203 21.4494 29.2691 21.4494C29.3422 21.4494 30.9083 22.2294 31.3165 22.4732C33.2178 23.5883 33.9917 24.7339 34.1927 26.7082C34.339 28.1951 33.9185 29.554 33.0045 30.5168Z" fill="white"/>
</svg>
