<svg width="40" height="40" viewBox="0 0 40 40" fill="none" xmlns="http://www.w3.org/2000/svg">
<path d="M39.1198 5.91753L20.6823 39.4584C20.3016 40.151 19.3236 40.155 18.9372 39.4659L0.134105 5.92065C-0.28691 5.16978 0.344306 4.26012 1.18082 4.41236L19.6382 7.7685C19.7559 7.78991 19.8765 7.7897 19.9942 7.76788L38.0655 4.41704C38.8992 4.26246 39.5333 5.1651 39.1198 5.91753Z" fill="url(#paint0_linear_82_798)"/>
<path d="M28.4312 0.00984342L14.787 2.72977C14.6779 2.7515 14.5791 2.80947 14.506 2.89457C14.4329 2.97966 14.3897 3.08707 14.3831 3.19988L13.5438 17.6209C13.5392 17.7 13.5528 17.7791 13.5835 17.8519C13.6142 17.9247 13.6611 17.9893 13.7206 18.0404C13.7801 18.0916 13.8505 18.1279 13.9262 18.1465C14.0019 18.1652 14.0808 18.1656 14.1567 18.1478L17.9555 17.2559C18.3109 17.1725 18.6321 17.491 18.5589 17.8545L17.4303 23.477C17.3545 23.8554 17.7036 24.1789 18.0668 24.0666L20.4132 23.3415C20.7769 23.2292 21.1264 23.5536 21.0495 23.9323L19.2559 32.7639C19.1437 33.3164 19.866 33.6176 20.1671 33.144L20.3684 32.8277L31.4865 10.2547C31.6728 9.87679 31.3516 9.44582 30.9438 9.526L27.0334 10.2937C26.666 10.3658 26.3534 10.0176 26.457 9.65203L29.0092 0.651377C29.113 0.284831 28.7991 -0.0634657 28.4313 0.00984342H28.4312Z" fill="url(#paint1_linear_82_798)"/>
<defs>
<linearGradient id="paint0_linear_82_798" x1="-0.324988" y1="7.11845" x2="20.0051" y2="34.2581" gradientUnits="userSpaceOnUse">
<stop stop-color="#41D1FF"/>
<stop offset="1" stop-color="#BD34FE"/>
</linearGradient>
<linearGradient id="paint1_linear_82_798" x1="21.3497" y1="0.748357" x2="25.5803" y2="29.2751" gradientUnits="userSpaceOnUse">
<stop stop-color="#FFEA83"/>
<stop offset="0.083" stop-color="#FFDD35"/>
<stop offset="1" stop-color="#FFA800"/>
</linearGradient>
</defs>
</svg>
