<svg width="28" height="28" viewBox="0 0 28 28" fill="none" xmlns="http://www.w3.org/2000/svg">
<g clip-path="url(#clip0_85_2137)">
<path fill-rule="evenodd" clip-rule="evenodd" d="M13.7552 1.09717C6.58761 1.09717 0.775391 6.9081 0.775391 14.077C0.775391 19.8121 4.49452 24.6773 9.65181 26.3938C10.3003 26.5142 10.5384 26.1122 10.5384 25.7694C10.5384 25.4599 10.5264 24.4374 10.5208 23.3528C6.90981 24.138 6.14784 21.8214 6.14784 21.8214C5.5574 20.3211 4.70666 19.9221 4.70666 19.9221C3.52879 19.1165 4.79543 19.1333 4.79543 19.1333C6.09862 19.2247 6.78514 20.4709 6.78514 20.4709C7.94281 22.4548 9.82161 21.8813 10.5623 21.5499C10.6788 20.711 11.0152 20.1382 11.3864 19.814C8.50338 19.4862 5.4725 18.3731 5.4725 13.3995C5.4725 11.9824 5.97976 10.8245 6.81008 9.91534C6.67509 9.58863 6.23081 8.26846 6.9356 6.48058C6.9356 6.48058 8.02535 6.13173 10.5058 7.81107C11.5414 7.52326 12.652 7.3786 13.7552 7.37366C14.8579 7.3786 15.9691 7.52283 17.0067 7.81064C19.4841 6.1313 20.5725 6.48015 20.5725 6.48015C21.279 8.26782 20.8348 9.5882 20.7 9.91491C21.5322 10.8241 22.0359 11.982 22.0359 13.3991C22.0359 18.3844 18.9994 19.4819 16.1091 19.8035C16.5748 20.2063 16.9897 20.9964 16.9897 22.2072C16.9897 23.9439 16.9746 25.3417 16.9746 25.7692C16.9746 26.1146 17.2085 26.5193 17.8662 26.3919C23.0205 24.6736 26.7353 19.8099 26.7353 14.077C26.7351 6.90853 20.9235 1.09717 13.7552 1.09717Z" fill="white"/>
<path d="M5.6916 19.7329C5.66301 19.7974 5.56156 19.8167 5.46914 19.7727C5.37456 19.7305 5.3219 19.6426 5.35242 19.5779C5.38037 19.5113 5.48203 19.493 5.57596 19.5375C5.67054 19.5799 5.72427 19.6686 5.69139 19.7331L5.6916 19.7329ZM6.21735 20.3195C6.15566 20.3769 6.03465 20.3502 5.95254 20.2593C5.86742 20.169 5.85152 20.048 5.91449 19.9898C5.97855 19.9326 6.0959 19.9597 6.18102 20.0499C6.26571 20.1415 6.28247 20.2614 6.21756 20.3197L6.21735 20.3195ZM6.72934 21.0668C6.64981 21.1223 6.51955 21.0705 6.43917 20.9551C6.35964 20.8394 6.35964 20.7008 6.44131 20.6455C6.52149 20.5901 6.64981 20.6402 6.73149 20.7545C6.81058 20.8717 6.81058 21.0105 6.72934 21.0668ZM7.43026 21.7892C7.35933 21.8677 7.20758 21.8466 7.09667 21.7398C6.9834 21.6351 6.9518 21.4862 7.02295 21.4079C7.09517 21.3293 7.24756 21.3512 7.35911 21.4574C7.47239 21.5618 7.50656 21.711 7.43069 21.789L7.43026 21.7892ZM8.39749 22.2086C8.3659 22.3103 8.22017 22.3565 8.07293 22.3131C7.92613 22.2686 7.83005 22.1497 7.86014 22.047C7.89023 21.9444 8.03704 21.8965 8.18513 21.9427C8.33194 21.987 8.42802 22.1052 8.39749 22.2086ZM9.45995 22.2862C9.4636 22.3932 9.33893 22.4818 9.18482 22.4839C9.02942 22.4876 8.90368 22.4008 8.90217 22.2954C8.90217 22.1873 9.02426 22.0998 9.17945 22.0968C9.33356 22.094 9.46016 22.18 9.46016 22.286L9.45995 22.2862ZM10.4482 22.1181C10.4667 22.2224 10.3595 22.3296 10.2062 22.3582C10.0558 22.3861 9.91605 22.3212 9.89671 22.2178C9.87822 22.1108 9.98741 22.0035 10.1379 21.9758C10.2913 21.9494 10.4289 22.0121 10.4482 22.1181Z" fill="white"/>
</g>
<defs>
<clipPath id="clip0_85_2137">
<rect width="27.5125" height="27.5125" fill="white"/>
</clipPath>
</defs>
</svg>
