<svg width="28" height="28" viewBox="0 0 28 28" fill="none" xmlns="http://www.w3.org/2000/svg">
<path d="M4.57664 10.5915H8.5127V23.256H4.57664V10.5915ZM6.54576 4.28857C6.99721 4.28857 7.43851 4.42247 7.81385 4.67333C8.18918 4.92418 8.48168 5.28072 8.65434 5.69785C8.82701 6.11497 8.87207 6.57394 8.78384 7.01668C8.69561 7.45942 8.47804 7.86604 8.15867 8.18511C7.8393 8.50418 7.43247 8.72136 6.98964 8.80917C6.54682 8.89698 6.0879 8.85147 5.67094 8.67841C5.25398 8.50535 4.89771 8.21252 4.64722 7.83694C4.39672 7.46137 4.26324 7.01994 4.26367 6.56849C4.26425 5.96362 4.50494 5.38372 4.93285 4.95621C5.36076 4.52871 5.94089 4.28857 6.54576 4.28857ZM10.9817 10.5915H14.7548V12.3302H14.8069C15.3329 11.3348 16.6152 10.285 18.53 10.285C22.516 10.2763 23.255 12.8997 23.255 16.3011V23.256H19.3189V17.0944C19.3189 15.6273 19.2929 13.7386 17.2738 13.7386C15.2546 13.7386 14.9112 15.3382 14.9112 16.9987V23.256H10.9817V10.5915Z" fill="white"/>
</svg>
