<svg width="31" height="24" viewBox="0 0 31 24" fill="none" xmlns="http://www.w3.org/2000/svg">
<path d="M27.8506 0H2.8811C2.11698 0 1.38416 0.303543 0.843854 0.843854C0.303543 1.38416 0 2.11698 0 2.8811L0 20.1677C0 20.9318 0.303543 21.6646 0.843854 22.2049C1.38416 22.7452 2.11698 23.0488 2.8811 23.0488H27.8506C28.6147 23.0488 29.3475 22.7452 29.8879 22.2049C30.4282 21.6646 30.7317 20.9318 30.7317 20.1677V2.8811C30.7317 2.11698 30.4282 1.38416 29.8879 0.843854C29.3475 0.303543 28.6147 0 27.8506 0ZM27.1591 1.92073L15.3659 10.3431L3.57256 1.92073H27.1591ZM28.811 20.1677C28.811 20.4224 28.7098 20.6667 28.5297 20.8468C28.3496 21.0269 28.1053 21.128 27.8506 21.128H2.8811C2.62639 21.128 2.38212 21.0269 2.20202 20.8468C2.02191 20.6667 1.92073 20.4224 1.92073 20.1677V3.10198L14.8088 12.3023C14.9715 12.4181 15.1662 12.4803 15.3659 12.4803C15.5655 12.4803 15.7602 12.4181 15.9229 12.3023L28.811 3.10198V20.1677Z" fill="white"/>
</svg>
