<svg width="26" height="38" viewBox="0 0 26 38" fill="none" xmlns="http://www.w3.org/2000/svg">
<path d="M12.699 32.2979C11.9788 32.2979 11.3099 31.8349 10.8469 30.9602C5.13615 20.4134 5.0847 20.3105 5.0847 20.259C4.26153 18.9471 3.82422 17.3522 3.82422 15.7316C3.82422 10.8183 7.81145 6.83105 12.7248 6.83105C17.6381 6.83105 21.6253 10.8183 21.6253 15.7316C21.6253 17.4037 21.1623 19.0243 20.2876 20.4134C20.2876 20.4134 19.9789 21.0307 14.5769 30.9602C14.0881 31.8349 13.445 32.2979 12.699 32.2979ZM12.7248 7.86002C8.37738 7.86002 4.85318 11.3842 4.85318 15.7316C4.85318 17.1721 5.23904 18.587 6.01077 19.8217C6.16511 20.1561 10.2295 27.6418 11.773 30.4972C12.3132 31.5004 13.1106 31.5004 13.6765 30.4972C15.6058 26.9473 19.2587 20.1819 19.3873 19.9503C20.1847 18.6641 20.5963 17.2236 20.5963 15.7573C20.5706 11.3842 17.0464 7.86002 12.7248 7.86002Z" fill="white"/>
<path d="M12.7278 21.0818C10.001 21.0818 7.81445 18.8695 7.81445 16.1685C7.81445 13.4675 10.001 11.2295 12.7278 11.2295C15.4545 11.2295 17.6411 13.4418 17.6411 16.1428C17.6411 18.8438 15.4288 21.0818 12.7278 21.0818ZM12.7278 12.2585C10.5927 12.2585 8.84342 14.0077 8.84342 16.1428C8.84342 18.2779 10.5927 20.0271 12.7278 20.0271C14.8629 20.0271 16.6121 18.2779 16.6121 16.1428C16.6121 14.0077 14.8629 12.2585 12.7278 12.2585Z" fill="white"/>
</svg>
