<svg width="10" height="10" viewBox="0 0 10 10" fill="none" xmlns="http://www.w3.org/2000/svg">
<path d="M5.69389 0.533735C5.69389 0.392179 5.75012 0.256422 5.85022 0.156327C5.95031 0.0562326 6.08607 0 6.22763 0L9.43003 0C9.57663 0 9.70971 0.0590666 9.80649 0.155139L9.80721 0.156562L9.80863 0.157274C9.90819 0.257242 9.96399 0.392647 9.96377 0.533735V3.73614C9.96377 3.8777 9.90754 4.01346 9.80744 4.11355C9.70735 4.21364 9.57159 4.26988 9.43003 4.26988C9.28848 4.26988 9.15272 4.21364 9.05263 4.11355C8.95253 4.01346 8.8963 3.8777 8.8963 3.73614V1.82181L4.46986 6.24825C4.36868 6.34253 4.23486 6.39386 4.09658 6.39142C3.95831 6.38898 3.82638 6.33296 3.72859 6.23518C3.6308 6.13739 3.57479 6.00546 3.57235 5.86718C3.56991 5.72891 3.62124 5.59509 3.71551 5.49391L8.14195 1.06747H6.22763C6.08607 1.06747 5.95031 1.01124 5.85022 0.911142C5.75012 0.811047 5.69389 0.67529 5.69389 0.533735Z" fill="#E9E9E9"/>
<path d="M1.6012 2.4913C1.45965 2.4913 1.32389 2.54753 1.2238 2.64762C1.1237 2.74772 1.06747 2.88348 1.06747 3.02503V8.36238C1.06747 8.657 1.30658 8.89611 1.6012 8.89611H6.93855C7.08011 8.89611 7.21586 8.83988 7.31596 8.73979C7.41605 8.63969 7.47229 8.50393 7.47229 8.36238V5.51579C7.47229 5.37424 7.52852 5.23848 7.62861 5.13839C7.72871 5.03829 7.86447 4.98206 8.00602 4.98206C8.14758 4.98206 8.28333 5.03829 8.38343 5.13839C8.48352 5.23848 8.53975 5.37424 8.53975 5.51579V8.36238C8.53975 8.78705 8.37106 9.19432 8.07077 9.4946C7.77049 9.79489 7.36322 9.96358 6.93855 9.96358H1.6012C1.17654 9.96358 0.769266 9.79489 0.468982 9.4946C0.168698 9.19432 0 8.78705 0 8.36238V3.02503C0 2.60037 0.168698 2.19309 0.468982 1.89281C0.769266 1.59253 1.17654 1.42383 1.6012 1.42383H4.44779C4.58934 1.42383 4.7251 1.48006 4.8252 1.58016C4.92529 1.68025 4.98152 1.81601 4.98152 1.95756C4.98152 2.09912 4.92529 2.23488 4.8252 2.33497C4.7251 2.43507 4.58934 2.4913 4.44779 2.4913H1.6012Z" fill="#E9E9E9"/>
</svg>
